<svg xmlns="http://www.w3.org/2000/svg" height="50pt" version="1.1"
     viewBox="1 -135 575.95902 575" width="50pt">
    <symbol id="Voiture" viewBox="0 0 511.879 511.879">
        <g>
            <g>
                <path fill="currentColor" d="M11.998,240.273c-2.21,0-3.999,1.788-3.999,3.999v23.994c0,2.21,1.789,3.999,3.999,3.999c2.211,0,3.999-1.789,3.999-3.999
			v-23.994C15.997,242.061,14.209,240.273,11.998,240.273z"/>
            </g>
        </g>
        <g>
            <g>
                <path fill="currentColor" d="M507.459,266.479l-4.249-8.428l-15.996-23.995c-0.453-0.687-1.117-1.21-1.882-1.507
			c-2.5-0.968-61.266-23.463-112.153-23.83c-9.646-6.647-78.465-52.754-136.983-56.417c-70.007-4.39-145.771,14.238-152.714,15.988
			H51.989c-1.382,0-2.671,0.718-3.397,1.898c-0.735,1.18-0.797,2.656-0.18,3.89l6.053,12.114l-35.952,14.379
			c-2.047,0.82-3.047,3.148-2.227,5.194c0.82,2.054,3.163,3.054,5.194,2.234l39.99-15.997c1.039-0.421,1.86-1.249,2.258-2.296
			c0.398-1.047,0.336-2.21-0.164-3.21l-5.101-10.209h25.518c0.344,0,0.687-0.039,1.015-0.125
			c0.782-0.211,78.872-20.378,150.699-15.879c59.463,3.718,133.18,55.175,133.914,55.698c0.679,0.477,1.484,0.727,2.304,0.727
			c45.841,0,100.711,19.652,109.365,22.862l15.027,22.486l3.999,7.998c0.703,1.406,2.116,2.211,3.585,2.211
			c0.602,0,1.211-0.133,1.782-0.421C507.647,270.86,508.451,268.455,507.459,266.479z"/>
            </g>
        </g>
        <g>
            <g>
                <path fill="currentColor" d="M511.755,315.232l-3.991-15.941c-0.532-2.148-2.71-3.445-4.851-2.906c-2.147,0.532-3.444,2.704-2.905,4.851l3.991,15.941
			c0.453,1.812,2.086,3.022,3.874,3.022c0.328,0,0.648-0.039,0.977-0.117C510.997,319.543,512.294,317.372,511.755,315.232z"/>
            </g>
        </g>
        <g>
            <g>
                <path fill="currentColor" d="M52.644,312.31l-44.646-7.436v-20.612c0-2.21-1.788-3.999-3.999-3.999c-2.21,0-3.999,1.789-3.999,3.999v23.994
			c0,1.961,1.414,3.624,3.343,3.944l47.989,7.998c0.227,0.039,0.446,0.055,0.664,0.055c1.922,0,3.617-1.381,3.937-3.342
			C56.299,314.732,54.823,312.677,52.644,312.31z"/>
            </g>
        </g>
        <g>
            <g>
                <path fill="currentColor" d="M35.993,208.28H15.997c-2.21,0-3.999,1.789-3.999,3.999c0,2.21,1.789,3.999,3.999,3.999h19.995c2.211,0,4-1.789,4-3.999
			C39.992,210.069,38.203,208.28,35.993,208.28z"/>
            </g>
        </g>
        <g>
            <g>
                <path fill="currentColor" d="M35.992,208.28c-2.21,0-3.999,1.789-3.999,3.999v23.995c0,2.21,1.789,3.999,3.999,3.999c2.211,0,3.999-1.789,3.999-3.999
			v-23.995C39.991,210.069,38.202,208.28,35.992,208.28z"/>
            </g>
        </g>
        <g>
            <g>
                <path fill="currentColor" d="M35.993,232.275H11.998c-2.21,0-3.999,1.788-3.999,3.999c0,2.21,1.789,3.999,3.999,3.999h23.994
			c2.211,0,3.999-1.789,4-3.999C39.992,234.063,38.203,232.275,35.993,232.275z"/>
            </g>
        </g>
        <g>
            <g>
                <path fill="currentColor" d="M35.993,272.265H11.998c-1.062,0-2.077,0.422-2.827,1.172l-7.998,7.998c-1.562,1.562-1.562,4.092,0,5.654
			c0.781,0.781,1.804,1.172,2.827,1.172s2.046-0.39,2.827-1.172l6.827-6.826h22.339c2.21,0,3.999-1.789,3.999-3.999
			C39.992,274.054,38.203,272.265,35.993,272.265z"/>
            </g>
        </g>
        <g>
            <g>
                <path fill="currentColor" d="M16.652,208.334c-2.163-0.382-4.234,1.109-4.601,3.289l-3.999,23.994c-0.359,2.179,1.11,4.242,3.289,4.601
			c0.227,0.039,0.445,0.055,0.664,0.055c1.922,0,3.617-1.383,3.936-3.344l3.999-23.995
			C20.307,210.755,18.831,208.701,16.652,208.334z"/>
            </g>
        </g>
        <g>
            <g>
                <path fill="currentColor" d="M371.912,312.255H147.965c-2.21,0-3.999,1.789-3.999,3.999c0,2.211,1.789,3.999,3.999,3.999h223.948
			c2.211,0,3.999-1.788,3.998-3.999C375.911,314.044,374.123,312.255,371.912,312.255z"/>
            </g>
        </g>
        <g>
            <g>
                <path fill="currentColor" d="M507.88,312.2h-0.008l-39.982,0.055c-2.21,0.008-3.999,1.797-3.999,4.007c0.008,2.203,1.797,3.991,3.999,3.991h0.008
			l39.982-0.055c2.211,0,3.999-1.796,3.999-3.999C511.871,313.989,510.083,312.2,507.88,312.2z"/>
            </g>
        </g>
        <g>
            <g>
                <path fill="currentColor" d="M494.54,248.271c-38.865,0-47.817-6.85-47.84-6.85c-1.586-1.546-4.108-1.531-5.655,0.047
			c-1.546,1.578-1.522,4.109,0.047,5.655c1.554,1.531,11.434,9.146,53.448,9.146c2.211,0,4-1.789,4-3.999
			C498.54,250.059,496.751,248.271,494.54,248.271z"/>
            </g>
        </g>
        <g>
            <g>
                <path fill="currentColor" d="M487.807,235.494c-0.43-2.172-2.522-3.593-4.702-3.14l-39.99,7.998c-2.163,0.437-3.57,2.538-3.14,4.709
			c0.383,1.898,2.054,3.21,3.921,3.21c0.257,0,0.523-0.023,0.788-0.077l39.991-7.998
			C486.838,239.766,488.245,237.657,487.807,235.494z"/>
            </g>
        </g>
        <g>
            <g>
                <path fill="currentColor" d="M503.881,288.261h-19.995c-2.21,0-3.999,1.789-3.999,3.999c0,2.21,1.789,3.999,3.999,3.999h19.995
			c2.211,0,3.999-1.789,3.999-3.999C507.88,290.05,506.092,288.261,503.881,288.261z"/>
            </g>
        </g>
        <g>
            <g>
                <path fill="currentColor" d="M503.881,264.267c-2.21,0-3.999,1.789-3.999,3.999v15.996c0,2.21,1.789,3.999,3.999,3.999
			c2.211,0,3.999-1.789,3.999-3.999v-15.996C507.88,266.056,506.092,264.267,503.881,264.267z"/>
            </g>
        </g>
        <g>
            <g>
                <path fill="currentColor" d="M503.881,288.261c-2.21,0-3.999,1.789-3.999,3.999v7.998c0,2.211,1.789,3.999,3.999,3.999
			c2.211,0,3.999-1.788,3.999-3.999v-7.998C507.88,290.05,506.092,288.261,503.881,288.261z"/>
            </g>
        </g>
        <g>
            <g>
                <path fill="currentColor" d="M420.143,312.255h-0.078c-2.21,0-3.959,1.789-3.959,3.999c0,2.211,1.827,3.999,4.037,3.999c2.211,0,4-1.788,4-3.999
			C424.143,314.044,422.354,312.255,420.143,312.255z"/>
            </g>
        </g>
        <g>
            <g>
                <path fill="currentColor" d="M419.901,272.266c-24.252,0-43.989,19.737-43.989,43.989c0,24.261,19.737,43.99,43.989,43.99
			c24.26,0,43.99-19.73,43.99-43.99C463.891,292.003,444.161,272.266,419.901,272.266z M419.901,352.245
			c-19.846,0-35.991-16.145-35.991-35.991s16.144-35.991,35.991-35.991c19.848,0,35.992,16.145,35.992,35.991
			S439.749,352.245,419.901,352.245z"/>
            </g>
        </g>
        <g>
            <g>
                <path fill="currentColor" d="M419.901,288.261c-2.21,0-3.998,1.789-3.998,3.999v7.998c0,2.211,1.788,3.999,3.998,3.999c2.211,0,4-1.788,4-3.999v-7.998
			C423.901,290.05,422.112,288.261,419.901,288.261z"/>
            </g>
        </g>
        <g>
            <g>
                <path fill="currentColor" d="M419.901,328.252c-2.21,0-3.998,1.789-3.998,4v7.998c0,2.21,1.788,3.998,3.998,3.998c2.211,0,4-1.788,4-3.998v-7.998
			C423.901,330.041,422.112,328.252,419.901,328.252z"/>
            </g>
        </g>
        <g>
            <g>
                <path fill="currentColor" d="M403.905,312.255h-7.998c-2.21,0-3.999,1.789-3.999,3.999c0,2.211,1.789,3.999,3.999,3.999h7.998c2.211,0,4-1.788,4-3.999
			C407.905,314.044,406.116,312.255,403.905,312.255z"/>
            </g>
        </g>
        <g>
            <g>
                <path fill="currentColor" d="M443.896,312.255h-7.999c-2.21,0-3.998,1.789-3.998,3.999c0,2.211,1.788,3.999,3.998,3.999h7.999
			c2.21,0,3.999-1.788,3.999-3.999C447.895,314.044,446.106,312.255,443.896,312.255z"/>
            </g>
        </g>
        <g>
            <g>
                <path fill="currentColor" d="M411.418,302.118l-5.654-5.655c-1.562-1.562-4.093-1.562-5.655,0s-1.562,4.093,0,5.655l5.655,5.655
			c0.781,0.78,1.805,1.171,2.827,1.171c1.024,0,2.047-0.391,2.827-1.171C412.98,306.211,412.98,303.68,411.418,302.118z"/>
            </g>
        </g>
        <g>
            <g>
                <path fill="currentColor" d="M439.694,330.392l-5.655-5.655c-1.561-1.562-4.093-1.562-5.655,0s-1.562,4.093,0,5.655l5.655,5.654
			c0.781,0.781,1.805,1.172,2.827,1.172c1.023,0,2.047-0.39,2.828-1.172C441.256,334.485,441.256,331.954,439.694,330.392z"/>
            </g>
        </g>
        <g>
            <g>
                <path fill="currentColor" d="M411.418,324.737c-1.561-1.562-4.092-1.562-5.654,0l-5.655,5.655c-1.562,1.562-1.562,4.092,0,5.654
			c0.781,0.781,1.805,1.172,2.827,1.172c1.024,0,2.047-0.39,2.828-1.172l5.654-5.654C412.98,328.83,412.98,326.299,411.418,324.737z
			"/>
            </g>
        </g>
        <g>
            <g>
                <path fill="currentColor" d="M439.693,296.463c-1.562-1.562-4.093-1.562-5.655,0l-5.655,5.655c-1.562,1.561-1.562,4.093,0,5.655
			c0.781,0.78,1.805,1.171,2.828,1.171c1.024,0,2.046-0.391,2.827-1.171l5.655-5.655
			C441.255,300.556,441.255,298.025,439.693,296.463z"/>
            </g>
        </g>
        <g>
            <g>
                <path fill="currentColor" d="M100.219,312.255h-0.078c-2.21,0-3.96,1.789-3.96,3.999c0,2.211,1.828,3.999,4.038,3.999c2.21,0,3.999-1.788,3.999-3.999
			C104.218,314.044,102.429,312.255,100.219,312.255z"/>
            </g>
        </g>
        <g>
            <g>
                <path fill="currentColor" d="M99.977,272.266c-24.252,0-43.99,19.737-43.99,43.989c0,24.261,19.738,43.99,43.99,43.99
			c24.26,0,43.989-19.73,43.989-43.99C143.966,292.003,124.237,272.266,99.977,272.266z M99.977,352.245
			c-19.846,0-35.991-16.145-35.991-35.991s16.144-35.991,35.991-35.991c19.847,0,35.991,16.145,35.991,35.991
			S119.823,352.245,99.977,352.245z"/>
            </g>
        </g>
        <g>
            <g>
                <path fill="currentColor" d="M99.977,288.261c-2.21,0-3.999,1.789-3.999,3.999v7.998c0,2.211,1.789,3.999,3.999,3.999c2.211,0,3.999-1.788,3.999-3.999
			v-7.998C103.976,290.05,102.187,288.261,99.977,288.261z"/>
            </g>
        </g>
        <g>
            <g>
                <path fill="currentColor" d="M99.977,328.252c-2.21,0-3.999,1.789-3.999,4v7.998c0,2.21,1.789,3.998,3.999,3.998c2.211,0,3.999-1.788,3.999-3.998
			v-7.998C103.976,330.041,102.187,328.252,99.977,328.252z"/>
            </g>
        </g>
        <g>
            <g>
                <path fill="currentColor" d="M83.981,312.255h-7.998c-2.211,0-3.999,1.789-3.999,3.999c0,2.211,1.788,3.999,3.999,3.999h7.998
			c2.21,0,3.999-1.788,3.999-3.999C87.98,314.044,86.191,312.255,83.981,312.255z"/>
            </g>
        </g>
        <g>
            <g>
                <path fill="currentColor" d="M123.971,312.255h-7.998c-2.21,0-3.999,1.789-3.999,3.999c0,2.211,1.789,3.999,3.999,3.999h7.998
			c2.211,0,3.999-1.788,3.999-3.999C127.97,314.044,126.181,312.255,123.971,312.255z"/>
            </g>
        </g>
        <g>
            <g>
                <path fill="currentColor" d="M91.495,302.118l-5.655-5.655c-1.562-1.562-4.093-1.562-5.655,0s-1.562,4.093,0,5.655l5.655,5.655
			c0.781,0.78,1.805,1.171,2.828,1.171c1.022,0,2.045-0.391,2.827-1.171C93.057,306.211,93.057,303.68,91.495,302.118z"/>
            </g>
        </g>
        <g>
            <g>
                <path fill="currentColor" d="M119.769,330.392l-5.655-5.655c-1.562-1.562-4.093-1.562-5.655,0c-1.562,1.562-1.562,4.093,0,5.655l5.655,5.654
			c0.781,0.781,1.805,1.172,2.828,1.172s2.046-0.39,2.827-1.172C121.331,334.485,121.331,331.954,119.769,330.392z"/>
            </g>
        </g>
        <g>
            <g>
                <path fill="currentColor" d="M91.495,324.737c-1.562-1.562-4.093-1.562-5.655,0l-5.655,5.655c-1.562,1.562-1.562,4.092,0,5.654
			c0.781,0.781,1.804,1.172,2.827,1.172c1.024,0,2.047-0.39,2.828-1.172l5.655-5.654C93.057,328.83,93.057,326.299,91.495,324.737z"
                />
            </g>
        </g>
        <g>
            <g>
                <path fill="currentColor" d="M119.77,296.463c-1.562-1.562-4.093-1.562-5.655,0l-5.655,5.655c-1.562,1.561-1.562,4.093,0,5.655
			c0.781,0.78,1.804,1.171,2.827,1.171s2.047-0.391,2.828-1.171l5.655-5.655C121.332,300.556,121.332,298.025,119.77,296.463z"/>
            </g>
        </g>
        <g>
            <g>
                <path fill="currentColor" d="M347.918,208.28H147.965c-23.143,0-51.73-15.458-51.847-28.033c-0.016-2.194-1.805-3.96-3.999-3.96
			c-0.008,0-0.023,0-0.039,0c-2.203,0.023-3.976,1.828-3.96,4.038c0.18,19.028,33.617,35.953,59.845,35.953h199.954
			c2.21,0,3.998-1.789,3.998-3.999C351.917,210.069,350.129,208.28,347.918,208.28z"/>
            </g>
        </g>
        <g>
            <g>
                <path fill="currentColor" d="M215.872,203.501l-7.998-39.991c-0.43-2.163-2.507-3.585-4.702-3.14c-2.164,0.438-3.57,2.539-3.14,4.71l7.998,39.99
			c0.383,1.898,2.054,3.21,3.921,3.21c0.258,0,0.523-0.023,0.789-0.077C214.903,207.773,216.31,205.664,215.872,203.501z"/>
            </g>
        </g>
        <g>
            <g>
                <path fill="currentColor" d="M235.945,232.275h-14.996c-2.211,0-3.999,1.788-3.999,3.999c0,2.21,1.788,3.999,3.999,3.999h14.996
			c2.21,0,3.999-1.789,3.999-3.999C239.944,234.063,238.155,232.275,235.945,232.275z"/>
            </g>
        </g>
        <g>
            <g>
                <path fill="currentColor" d="M123.471,232.275h-14.996c-2.21,0-3.999,1.788-3.999,3.999c0,2.21,1.789,3.999,3.999,3.999h14.996
			c2.211,0,3.999-1.789,3.999-3.999C127.47,234.063,125.682,232.275,123.471,232.275z"/>
            </g>
        </g>
    </symbol>
    <symbol id="Moto" viewBox="0 0 511.878 511.878">
        <g>
            <g>
                <path fill="currentColor" d="M156.002,315.145c-2.261-0.157-4.151,1.413-4.358,3.608c-3.492,37.147-34.301,65.156-71.663,65.156
			c-39.69,0-71.983-32.289-71.983-71.983c0-39.693,32.293-71.982,71.983-71.982c22.498,0,43.29,10.231,57.045,28.079
			c1.347,1.734,3.858,2.062,5.608,0.727c1.749-1.351,2.073-3.866,0.726-5.616c-15.277-19.816-38.381-31.188-63.379-31.188
			C35.878,231.946,0,267.827,0,311.926s35.878,79.981,79.981,79.981c41.514,0,75.748-31.126,79.629-72.405
			C159.814,317.3,158.201,315.356,156.002,315.145z"/>
            </g>
        </g>
        <g>
            <g>
                <path fill="currentColor" d="M131.403,320.649c-2.183-0.531-4.315,0.766-4.85,2.914c-5.331,21.401-24.483,36.351-46.571,36.351
			c-26.463,0-47.989-21.526-47.989-47.989c0-26.462,21.526-47.988,47.989-47.988c13.16,0,25.447,5.226,34.589,14.723
			c1.539,1.609,4.073,1.632,5.655,0.109c1.593-1.53,1.64-4.06,0.109-5.654c-10.666-11.076-24.999-17.176-40.354-17.176
			c-30.872,0-55.987,25.119-55.987,55.987c0,30.868,25.115,55.987,55.987,55.987c25.767,0,48.109-17.442,54.336-42.413
			C134.848,323.352,133.544,321.188,131.403,320.649z"/>
            </g>
        </g>
        <g>
            <g>
                <path fill="currentColor" d="M103.236,328.022c-1.621-1.515-4.155-1.413-5.651,0.211c-4.53,4.882-10.947,7.686-17.605,7.686
			c-13.232,0-23.995-10.763-23.995-23.994c0-13.23,10.764-23.994,23.995-23.994c3.901,0,7.615,0.907,11.044,2.688
			c1.954,1.007,4.374,0.258,5.394-1.703c1.019-1.961,0.258-4.374-1.699-5.39c-4.518-2.351-9.614-3.593-14.738-3.593
			c-17.641,0-31.993,14.348-31.993,31.992c0,17.644,14.352,31.993,31.993,31.993c8.881,0,17.433-3.733,23.47-10.249
			C104.951,332.053,104.857,329.522,103.236,328.022z"/>
            </g>
        </g>
        <g>
            <g>
                <path fill="currentColor" d="M435.896,239.943c-5.263,0-10.528,0.547-15.652,1.625c-2.163,0.453-3.546,2.578-3.093,4.733
			c0.453,2.164,2.592,3.57,4.733,3.093c4.585-0.961,9.295-1.453,14.012-1.453c37.492,0,67.984,30.5,67.984,67.984
			c0,37.482-30.492,67.983-67.984,67.983c-37.49,0-67.983-30.501-67.983-67.983c0-18.535,7.326-35.867,20.636-48.786
			c1.578-1.538,1.625-4.069,0.078-5.655c-1.531-1.577-4.061-1.624-5.654-0.078c-14.872,14.435-23.058,33.797-23.058,54.52
			c0,41.895,34.085,75.981,75.981,75.981c41.897,0,75.982-34.086,75.982-75.982C511.878,274.029,477.792,239.943,435.896,239.943z"
                />
            </g>
        </g>
        <g>
            <g>
                <path fill="currentColor" d="M460.968,227.406c-8.123-2.296-16.558-3.46-25.072-3.46c-50.722,0-91.978,41.264-91.978,91.979
			c0,14.731,3.375,28.797,10.021,41.81c0.711,1.383,2.109,2.18,3.57,2.18c0.61,0,1.234-0.141,1.812-0.438
			c1.969-1.008,2.749-3.413,1.742-5.382c-6.069-11.872-9.146-24.713-9.146-38.17c0-46.309,37.678-83.98,83.979-83.98
			c7.78,0,15.481,1.062,22.901,3.163c2.109,0.578,4.328-0.633,4.937-2.765C464.327,230.218,463.093,228.008,460.968,227.406z"/>
            </g>
        </g>
        <g>
            <g>
                <path fill="currentColor" d="M435.895,263.937c-1.03,0-2.053,0.024-3.069,0.086c-2.202,0.125-3.882,2.024-3.757,4.226
			c0.125,2.202,1.985,4.007,4.226,3.757c0.86-0.047,1.727-0.07,2.601-0.07c24.261,0,43.99,19.737,43.99,43.99
			c0,24.252-19.729,43.989-43.99,43.989c-24.26,0-43.989-19.737-43.989-43.989c0-9.733,3.124-18.957,9.021-26.682
			c1.336-1.757,1.008-4.264-0.75-5.608c-1.749-1.335-4.256-0.999-5.608,0.75c-6.974,9.131-10.661,20.034-10.661,31.54
			c0,28.664,23.323,51.987,51.987,51.987c28.666,0,51.988-23.324,51.987-51.988C487.883,287.259,464.561,263.937,435.895,263.937z"
                />
            </g>
        </g>
        <g>
            <g>
                <path fill="currentColor" d="M442.551,280.55c-2.186-0.391-4.257,1.031-4.663,3.194c-0.414,2.172,1.023,4.257,3.194,4.663
			c13.216,2.477,22.808,14.052,22.808,27.518c0,15.433-12.559,27.993-27.994,27.993c-15.433,0-27.992-12.559-27.992-27.993
			c0-3.773,0.741-7.436,2.202-10.896c0.859-2.031-0.094-4.382-2.132-5.241c-2.039-0.843-4.383,0.086-5.241,2.133
			c-1.875,4.444-2.828,9.153-2.828,14.005c0,19.845,16.145,35.991,35.991,35.991c19.848,0,35.992-16.146,35.992-35.992
			C471.888,298.616,459.547,283.737,442.551,280.55z"/>
            </g>
        </g>
        <g>
            <g>
                <path fill="currentColor" d="M223.865,187.152c-0.446-2.156-2.543-3.601-4.726-3.109c-0.508,0.101-51.574,10.169-84.328-22.893
			c-0.664-0.672-1.542-1.086-2.48-1.172l-87.979-8.061c-1.628-0.093-3.265,0.766-3.983,2.289c-0.715,1.522-0.399,3.327,0.792,4.522
			c2.984,2.991,73.538,73.217,106.803,73.217c2.211,0,4-1.789,4.001-3.997c0-2.211-1.789-3.999-4-3.999
			c-22.041,0-68.968-40.162-93.079-63.032l75.287,6.896c35.769,34.867,88.342,24.533,90.584,24.057
			C222.92,191.424,224.31,189.316,223.865,187.152z"/>
            </g>
        </g>
        <g>
            <g>
                <path fill="currentColor" d="M343.606,170.42c-0.312-0.757-8.154-18.715-42.818-26.361c-46.918-10.333-75.903,33.274-76.192,33.719
			c-1.208,1.851-0.684,4.327,1.167,5.53c0.675,0.437,1.433,0.648,2.179,0.648c1.309,0,2.589-0.641,3.355-1.82
			c0.257-0.391,26.185-39.445,67.773-30.267c30.008,6.623,37.015,21.323,37.179,21.659c0.858,2.016,3.171,2.929,5.21,2.125
			C343.497,174.801,344.465,172.458,343.606,170.42z"/>
            </g>
        </g>
        <g>
            <g>
                <path fill="currentColor" d="M423.9,145.723V123.97c0-2.21-1.789-3.999-4-3.999h-7.998c-1.335,0-2.585,0.672-3.327,1.781l-31.992,47.989
			c-1.227,1.835-0.735,4.319,1.109,5.545c1.835,1.218,4.319,0.726,5.545-1.109l30.806-46.208h1.859v19.995
			c0,1.445,0.788,2.788,2.046,3.491c1.686,0.937,41.013,23.635,37.944,79.583c-0.125,2.203,1.562,4.093,3.772,4.21
			c0.071,0.008,0.149,0.008,0.227,0.008c2.109,0,3.866-1.648,3.984-3.78C466.858,177.207,432.835,151.51,423.9,145.723z"/>
            </g>
        </g>
        <g>
            <g>
                <path fill="currentColor" d="M167.599,266.28c-0.909-2.007-3.264-2.898-5.295-1.984l-87.979,39.99c-2.01,0.914-2.897,3.281-1.983,5.296
			c0.668,1.476,2.121,2.343,3.644,2.343c0.551,0,1.113-0.117,1.65-0.36l87.979-39.99
			C167.626,270.661,168.513,268.295,167.599,266.28z"/>
            </g>
        </g>
        <g>
            <g>
                <path fill="currentColor" d="M191.865,299.093c-0.469-2.172-2.59-3.523-4.749-3.078L75.142,320.009c-2.159,0.469-3.534,2.594-3.069,4.749
			c0.402,1.883,2.057,3.163,3.905,3.163c0.277,0,0.559-0.031,0.843-0.086l111.974-23.994
			C190.955,303.372,192.329,301.248,191.865,299.093z"/>
            </g>
        </g>
        <g>
            <g>
                <path fill="currentColor" d="M357.502,351.917H251.94c-2.21,0-3.999,1.788-3.999,3.999c0,2.21,1.789,3.999,3.999,3.999h105.561c2.21,0,4-1.789,4-3.999
			C361.501,353.705,359.712,351.917,357.502,351.917z"/>
            </g>
        </g>
        <g>
            <g>
                <path fill="currentColor" d="M203.953,351.917c-14.571,0-37.515-15.443-37.745-15.599c-1.825-1.218-4.312-0.757-5.554,1.07
			c-1.242,1.828-0.766,4.312,1.062,5.554c1.019,0.688,25.205,16.973,42.236,16.973c2.21,0,3.999-1.789,4-3.999
			C207.952,353.705,206.163,351.917,203.953,351.917z"/>
            </g>
        </g>
        <g>
            <g>
                <path fill="currentColor" d="M343.574,346.152l-31.992-71.842c-0.89-2.023-3.249-2.922-5.28-2.031c-2.015,0.898-2.921,3.264-2.031,5.28l31.993,71.842
			c0.663,1.492,2.124,2.375,3.655,2.375c0.547,0,1.094-0.109,1.625-0.344C343.558,350.534,344.465,348.168,343.574,346.152z"/>
            </g>
        </g>
        <g>
            <g>
                <path fill="currentColor" d="M374.739,209.122c-1.562-1.562-4.093-1.562-5.655,0l-63.985,63.985c-1.562,1.562-1.562,4.092,0,5.654
			c0.781,0.781,1.805,1.172,2.828,1.172c1.023,0,2.046-0.39,2.827-1.172l63.985-63.984
			C376.301,213.215,376.301,210.684,374.739,209.122z"/>
            </g>
        </g>
        <g>
            <g>
                <path fill="currentColor" d="M247.941,247.941c-13.231,0-23.994,10.763-23.994,23.994c0,13.223,10.763,23.986,23.994,23.986
			s23.994-10.762,23.994-23.986C271.935,258.704,261.172,247.941,247.941,247.941z M247.941,287.923
			c-8.822,0-15.996-7.17-15.996-15.988s7.174-15.996,15.996-15.996s15.996,7.178,15.996,15.996S256.763,287.923,247.941,287.923z"/>
            </g>
        </g>
        <g>
            <g>
                <path fill="currentColor" d="M247.941,259.938c-6.615,0-11.997,5.382-11.997,11.997c0,6.607,5.382,11.989,11.997,11.989
			c6.616,0,11.997-5.381,11.997-11.989C259.938,265.32,254.557,259.938,247.941,259.938z M247.941,275.926
			c-2.206,0-3.999-1.788-3.999-3.991s1.793-3.999,3.999-3.999s3.999,1.796,3.999,3.999S250.148,275.926,247.941,275.926z"/>
            </g>
        </g>
        <g>
            <g>
                <path fill="currentColor" d="M283.933,287.931c-6.616,0-11.998,5.382-11.998,11.997c0,6.616,5.382,11.997,11.998,11.997
			c6.615,0,11.996-5.381,11.996-11.997C295.929,293.313,290.548,287.931,283.933,287.931z M283.933,303.927
			c-2.203,0-4-1.796-4-3.999c0-2.202,1.797-3.999,4-3.999c2.202,0,3.998,1.797,3.998,3.999
			C287.931,302.131,286.135,303.927,283.933,303.927z"/>
            </g>
        </g>
        <g>
            <g>
                <path fill="currentColor" d="M299.929,335.919h-31.993c-2.21,0-3.999,1.789-3.999,4c0,2.21,1.789,3.999,3.999,3.999h31.993
			c2.21,0,3.998-1.789,3.998-3.999C303.927,337.708,302.139,335.919,299.929,335.919z"/>
            </g>
        </g>
        <g>
            <g>
                <path fill="currentColor" d="M245.883,352.416l-71.983-39.99c-1.933-1.062-4.366-0.367-5.436,1.555c-1.074,1.937-0.379,4.366,1.554,5.443
			l71.983,39.991c0.613,0.336,1.281,0.5,1.937,0.5c1.406,0,2.769-0.743,3.499-2.055
			C248.511,355.924,247.816,353.494,245.883,352.416z"/>
            </g>
        </g>
        <g>
            <g>
                <path fill="currentColor" d="M214.168,296.601l-47.988-31.992c-1.847-1.227-4.327-0.735-5.546,1.109c-1.226,1.835-0.73,4.318,1.109,5.545
			l47.989,31.992c0.683,0.453,1.452,0.672,2.214,0.672c1.292,0,2.561-0.625,3.331-1.78
			C216.504,300.311,216.008,297.828,214.168,296.601z"/>
            </g>
        </g>
        <g>
            <g>
                <path fill="currentColor" d="M173.897,227.563c-1.929-1.063-4.362-0.375-5.436,1.562l-15.997,28.876c-1.07,1.929-0.372,4.366,1.562,5.436
			c0.613,0.336,1.277,0.5,1.933,0.5c1.406,0,2.773-0.742,3.503-2.063l15.997-28.875C176.529,231.07,175.83,228.633,173.897,227.563z
			"/>
            </g>
        </g>
        <g>
            <g>
                <path fill="currentColor" d="M236.307,231.96l-87.979-7.998c-2.23-0.125-4.144,1.421-4.347,3.624c-0.199,2.195,1.422,4.14,3.621,4.343l87.979,7.998
			c0.125,0.008,0.246,0.016,0.367,0.016c2.046,0,3.788-1.563,3.979-3.64C240.126,234.107,238.506,232.163,236.307,231.96z"/>
            </g>
        </g>
        <g>
            <g>
                <path fill="currentColor" d="M238.771,233.116c-1.561-1.562-4.092-1.562-5.654,0l-39.991,39.991c-1.562,1.562-1.562,4.092,0,5.654
			c0.781,0.781,1.805,1.172,2.828,1.172s2.046-0.39,2.827-1.172l39.99-39.99C240.333,237.209,240.333,234.678,238.771,233.116z"/>
            </g>
        </g>
        <g>
            <g>
                <path fill="currentColor" d="M216.714,231.179c-1.562-1.562-4.093-1.562-5.655,0l-33.93,33.93c-1.562,1.561-1.562,4.092,0,5.654
			c0.782,0.781,1.805,1.172,2.828,1.172s2.046-0.391,2.827-1.172l33.93-33.929C218.276,235.272,218.276,232.741,216.714,231.179z"/>
            </g>
        </g>
        <g>
            <g>
                <path fill="currentColor" d="M239.521,218.159l-15.996-31.992c-0.992-1.969-3.386-2.781-5.366-1.789c-1.976,0.992-2.776,3.39-1.788,5.366
			l15.996,31.992c0.703,1.399,2.113,2.211,3.581,2.211c0.601,0,1.211-0.133,1.784-0.422
			C239.709,222.533,240.509,220.135,239.521,218.159z"/>
            </g>
        </g>
        <g>
            <g>
                <path fill="currentColor" d="M236.276,215.965l-95.978-7.999c-2.268-0.125-4.135,1.453-4.315,3.648c-0.184,2.202,1.449,4.139,3.651,4.319l95.978,7.998
			c0.113,0.008,0.227,0.016,0.336,0.016c2.058,0,3.807-1.578,3.979-3.663C240.111,218.081,238.479,216.144,236.276,215.965z"/>
            </g>
        </g>
        <g>
            <g>
                <path fill="currentColor" d="M341.186,168.163c-2.11-0.71-4.36,0.438-5.062,2.531c-0.149,0.453-15.872,45.255-84.184,45.255
			c-2.21,0-3.999,1.788-3.999,3.999c0,2.21,1.789,3.999,3.999,3.999c74.014,0,91.088-48.653,91.776-50.722
			C344.412,171.131,343.279,168.866,341.186,168.163z"/>
            </g>
        </g>
        <g>
            <g>
                <path fill="currentColor" d="M379.91,135.967c-2.21,0-3.999,1.789-3.999,3.999v15.996c0,2.21,1.789,3.999,3.999,3.999c2.211,0,3.999-1.788,3.999-3.999
			v-15.996C383.909,137.756,382.121,135.967,379.91,135.967z"/>
            </g>
        </g>
        <g>
            <g>
                <path fill="currentColor" d="M379.91,135.967h-39.99c-2.211,0-3.999,1.789-3.999,3.999c0,2.21,1.788,3.999,3.999,3.999h39.99
			c2.211,0,3.999-1.789,3.999-3.999C383.909,137.756,382.121,135.967,379.91,135.967z"/>
            </g>
        </g>
        <g>
            <g>
                <path fill="currentColor" d="M355.916,143.966c-6.615,0-11.997,5.382-11.997,11.997c0,6.616,5.382,11.997,11.997,11.997
			c6.615,0,11.997-5.382,11.997-11.997S362.531,143.966,355.916,143.966z M355.916,159.961c-2.203,0-3.999-1.796-3.999-3.999
			c0-2.202,1.796-3.999,3.999-3.999s3.999,1.797,3.999,3.999C359.915,158.165,358.119,159.961,355.916,159.961z"/>
            </g>
        </g>
        <g>
            <g>
                <path fill="currentColor" d="M79.981,275.934c-2.211,0-3.999,1.789-3.999,3.999v3.999c0,2.211,1.788,3.999,3.999,3.999c2.21,0,3.999-1.788,3.999-3.999
			v-3.999C83.98,277.723,82.191,275.934,79.981,275.934z"/>
            </g>
        </g>
        <g>
            <g>
                <path fill="currentColor" d="M79.981,335.92c-2.211,0-3.999,1.789-3.999,4v3.999c0,2.21,1.788,3.999,3.999,3.999c2.21,0,3.999-1.79,3.999-3.999v-3.999
			C83.98,337.709,82.191,335.92,79.981,335.92z"/>
            </g>
        </g>
        <g>
            <g>
                <path fill="currentColor" d="M69.447,285.682l-1.999-3.468c-1.102-1.907-3.542-2.563-5.46-1.469c-1.913,1.11-2.573,3.554-1.468,5.467l2,3.469
			c0.739,1.281,2.086,1.999,3.468,1.999c0.676,0,1.363-0.172,1.991-0.53C69.892,290.04,70.552,287.595,69.447,285.682z"/>
            </g>
        </g>
        <g>
            <g>
                <path fill="currentColor" d="M99.441,337.63l-2-3.46c-1.109-1.913-3.557-2.577-5.463-1.461c-1.914,1.102-2.57,3.546-1.465,5.46l2,3.46
			c0.742,1.281,2.085,2,3.468,2c0.68,0,1.367-0.171,1.996-0.539C99.89,341.988,100.546,339.544,99.441,337.63z"/>
            </g>
        </g>
        <g>
            <g>
                <path fill="currentColor" d="M57.736,294.468l-3.46-1.999c-1.918-1.125-4.362-0.453-5.464,1.461c-1.104,1.913-0.449,4.358,1.465,5.46l3.46,1.999
			c0.629,0.367,1.316,0.539,1.996,0.539c1.382,0,2.726-0.718,3.468-2C60.306,298.015,59.65,295.57,57.736,294.468z"/>
            </g>
        </g>
        <g>
            <g>
                <path fill="currentColor" d="M51.98,307.926h-3.991c-2.21,0-3.999,1.789-3.999,3.999c0,2.211,1.789,4,3.999,4h3.991c2.21,0,3.999-1.789,3.999-4
			C55.979,309.715,54.19,307.926,51.98,307.926z"/>
            </g>
        </g>
        <g>
            <g>
                <path fill="currentColor" d="M59.189,323.915c-1.106-1.914-3.558-2.555-5.464-1.453l-3.452,1.999c-1.914,1.11-2.565,3.554-1.457,5.468
			c0.742,1.281,2.086,1.992,3.464,1.992c0.68,0,1.371-0.171,2-0.539l3.452-2C59.646,328.272,60.298,325.828,59.189,323.915z"/>
            </g>
        </g>
        <g>
            <g>
                <path fill="currentColor" d="M67.973,332.701c-1.914-1.092-4.362-0.444-5.46,1.477l-1.992,3.46c-1.105,1.914-0.445,4.358,1.468,5.46
			c0.629,0.359,1.316,0.531,1.992,0.531c1.382,0,2.729-0.718,3.469-2.008l1.991-3.46C70.546,336.247,69.886,333.803,67.973,332.701z
			"/>
            </g>
        </g>
        <g>
            <g>
                <path fill="currentColor" d="M97.972,280.769c-1.913-1.117-4.354-0.461-5.463,1.453l-2,3.452c-1.109,1.913-0.457,4.359,1.457,5.468
			c0.629,0.366,1.32,0.538,2,0.538c1.378,0,2.722-0.71,3.463-1.991l2-3.453C100.538,284.323,99.886,281.878,97.972,280.769z"/>
            </g>
        </g>
        <g>
            <g>
                <path fill="currentColor" d="M75.982,319.923c-2.207,0-3.999-1.796-3.999-3.998c0-1.094,0-2.453,5.264-4.203c2.093-0.704,3.226-2.968,2.527-5.061
			c-0.696-2.086-2.941-3.226-5.058-2.531c-2.932,0.984-10.731,3.578-10.731,11.795c0,6.615,5.381,11.996,11.997,11.996
			c2.21,0,3.999-1.788,3.999-3.998C79.981,321.712,78.192,319.923,75.982,319.923z"/>
            </g>
        </g>
        <g>
            <g>
                <path fill="currentColor" d="M211.95,295.929h-23.994c-2.211,0-3.999,1.789-3.999,3.999c0,2.211,1.788,3.999,3.999,3.999h23.994
			c2.21,0,3.999-1.788,3.999-3.999C215.949,297.718,214.16,295.929,211.95,295.929z"/>
            </g>
        </g>
        <g>
            <g>
                <path fill="currentColor" d="M446.487,310.293c-1.039-1.945-3.46-2.71-5.405-1.656c-1.952,1.031-2.694,3.452-1.655,5.405
			c1.032,1.945,0.297,4.374-1.656,5.412c-0.953,0.5-2.03,0.594-3.046,0.297c-1.015-0.312-1.859-1.006-2.358-1.944
			c-1.039-1.952-3.453-2.71-5.405-1.656c-1.953,1.031-2.694,3.452-1.656,5.405c1.5,2.827,4.015,4.905,7.077,5.843
			c1.163,0.35,2.342,0.53,3.529,0.53c1.937,0,3.859-0.475,5.623-1.413C447.362,323.407,449.588,316.127,446.487,310.293z"/>
            </g>
        </g>
        <g>
            <g>
                <path fill="currentColor" d="M432.366,317.815l-35.492-66.711c-1.039-1.953-3.467-2.702-5.405-1.648c-1.952,1.039-2.694,3.461-1.655,5.405
			l35.491,66.711c0.718,1.351,2.101,2.117,3.53,2.117c0.641,0,1.282-0.148,1.875-0.469
			C432.663,322.181,433.404,319.759,432.366,317.815z"/>
            </g>
        </g>
        <g>
            <g>
                <path fill="currentColor" d="M446.488,310.294l-35.507-66.734c-1.039-1.96-3.467-2.71-5.405-1.656c-1.953,1.039-2.695,3.46-1.656,5.405l35.508,66.734
			c0.718,1.359,2.1,2.124,3.53,2.124c0.64,0,1.28-0.148,1.874-0.468C446.785,314.66,447.527,312.238,446.488,310.294z"/>
            </g>
        </g>
        <g>
            <g>
                <path fill="currentColor" d="M403.904,311.925h-15.996c-2.21,0-3.999,1.789-3.999,4c0,2.21,1.789,3.998,3.999,3.998h15.996c2.211,0,4-1.788,4-3.998
			C407.904,313.714,406.115,311.925,403.904,311.925z"/>
            </g>
        </g>
        <g>
            <g>
                <path fill="currentColor" d="M243.942,351.917h-39.99c-2.211,0-3.999,1.788-3.999,3.999c0,2.21,1.788,3.999,3.999,3.999h39.99
			c2.21,0,3.999-1.789,3.999-3.999C247.941,353.705,246.152,351.917,243.942,351.917z"/>
            </g>
        </g>
        <g>
            <g>
                <path fill="currentColor" d="M173.236,312.136c-2.101-0.711-4.366,0.422-5.065,2.508l-7.998,23.705c-0.707,2.093,0.417,4.366,2.511,5.069
			c0.422,0.141,0.855,0.211,1.277,0.211c1.667,0,3.226-1.054,3.788-2.719l7.998-23.705
			C176.454,315.113,175.33,312.839,173.236,312.136z"/>
            </g>
        </g>
        <g>
            <g>
                <path fill="currentColor" d="M200.078,328.225c-0.657-2.108-2.906-3.272-5.015-2.608l-32.305,10.2c-2.109,0.664-3.277,2.914-2.609,5.016
			c0.535,1.71,2.113,2.796,3.812,2.796c0.398,0,0.804-0.062,1.203-0.188l32.305-10.201
			C199.578,332.577,200.745,330.327,200.078,328.225z"/>
            </g>
        </g>
        <g>
            <g>
                <path fill="currentColor" d="M447.222,193.734l-15.996-23.994c-1.219-1.843-3.702-2.335-5.546-1.109c-1.842,1.227-2.335,3.71-1.109,5.546
			l15.997,23.994c0.765,1.156,2.038,1.781,3.327,1.781c0.765,0,1.53-0.219,2.218-0.672
			C447.956,198.053,448.449,195.569,447.222,193.734z"/>
            </g>
        </g>
        <g>
            <g>
                <path fill="currentColor" d="M372.881,208.067l-31.992-7.998c-2.141-0.531-4.312,0.766-4.843,2.914c-0.547,2.14,0.764,4.311,2.905,4.85l31.992,7.999
			c0.328,0.078,0.657,0.117,0.969,0.117c1.797,0,3.421-1.211,3.874-3.032C376.333,210.777,375.021,208.606,372.881,208.067z"/>
            </g>
        </g>
        <g>
            <g>
                <path fill="currentColor" d="M342.746,201.123c-1.561-1.562-4.093-1.562-5.655,0l-31.992,31.993c-1.562,1.562-1.562,4.093,0,5.655
			c0.781,0.781,1.805,1.172,2.828,1.172c1.023,0,2.046-0.391,2.827-1.173l31.992-31.992
			C344.308,205.216,344.308,202.685,342.746,201.123z"/>
            </g>
        </g>
        <g>
            <g>
                <path fill="currentColor" d="M307.927,327.921c-2.211,0-4,1.789-4,4c0,2.202-1.796,3.998-3.998,3.998c-2.211,0-4,1.789-4,4c0,2.21,1.789,3.999,4,3.999
			c6.615,0,11.997-5.381,11.997-11.997C311.926,329.71,310.137,327.921,307.927,327.921z"/>
            </g>
        </g>
        <g>
            <g>
                <path fill="currentColor" d="M307.927,311.925c-2.211,0-4,1.789-4,4v15.996c0,2.21,1.789,3.998,4,3.998c2.21,0,3.999-1.788,3.999-3.998v-15.996
			C311.926,313.714,310.137,311.925,307.927,311.925z"/>
            </g>
        </g>
        <g>
            <g>
                <path fill="currentColor" d="M302.756,257.111c-1.562-1.562-4.093-1.562-5.655,0l-15.996,15.996c-1.562,1.562-1.562,4.092,0,5.654
			c0.781,0.781,1.805,1.172,2.828,1.172s2.046-0.39,2.827-1.172l15.996-15.996C304.318,261.204,304.318,258.673,302.756,257.111z"/>
            </g>
        </g>
        <g>
            <g>
                <path fill="currentColor" d="M302.756,241.114c-1.562-1.562-4.093-1.562-5.655,0l-15.996,15.997c-1.562,1.561-1.562,4.092,0,5.654
			c0.781,0.781,1.805,1.172,2.828,1.172s2.046-0.391,2.827-1.172l15.996-15.996C304.318,245.207,304.318,242.676,302.756,241.114z"
                />
            </g>
        </g>
        <g>
            <g>
                <path fill="currentColor" d="M239.822,338.95l-9.998-39.99c-0.534-2.141-2.714-3.437-4.846-2.914c-2.145,0.539-3.449,2.711-2.91,4.851l9.998,39.99
			c0.453,1.82,2.082,3.031,3.874,3.031c0.32,0,0.648-0.039,0.973-0.117C239.056,343.262,240.361,341.09,239.822,338.95z"/>
            </g>
        </g>
        <g>
            <g>
                <path fill="currentColor" d="M255.818,338.95l-7.998-31.992c-0.535-2.148-2.726-3.422-4.847-2.914c-2.143,0.539-3.448,2.711-2.909,4.851l7.998,31.992
			c0.453,1.82,2.082,3.031,3.874,3.031c0.32,0,0.649-0.039,0.973-0.117C255.053,343.262,256.357,341.09,255.818,338.95z"/>
            </g>
        </g>
        <g>
            <g>
                <path fill="currentColor" d="M211.95,311.925h-7.998c-2.211,0-3.999,1.789-3.999,4c0,2.21,1.788,3.998,3.999,3.998h7.998
			c2.21,0,3.999-1.788,3.999-3.998C215.949,313.714,214.16,311.925,211.95,311.925z"/>
            </g>
        </g>
        <g>
            <g>
                <path fill="currentColor" d="M59.986,175.957H43.989c-2.21,0-3.999,1.789-3.999,3.999c0,2.211,1.789,4,3.999,4h15.997c2.21,0,3.999-1.788,3.999-4
			C63.985,177.746,62.196,175.957,59.986,175.957z"/>
            </g>
        </g>
        <g>
            <g>
                <path fill="currentColor" d="M46.816,177.13c-1.562-1.562-4.093-1.562-5.655,0l-15.996,15.996c-1.562,1.562-1.562,4.093,0,5.655
			c0.782,0.78,1.805,1.171,2.828,1.171s2.047-0.39,2.827-1.171l15.996-15.996C48.378,181.223,48.378,178.692,46.816,177.13z"/>
            </g>
        </g>
        <g>
            <g>
                <path fill="currentColor" d="M379.91,167.96h-31.992c-2.211,0-3.999,1.789-3.999,3.999c0,2.211,1.788,3.999,3.999,3.999h31.992
			c2.211,0,3.999-1.789,3.999-3.999C383.909,169.749,382.121,167.96,379.91,167.96z"/>
            </g>
        </g>
        <g>
            <g>
                <path fill="currentColor" d="M189.22,296.132l-23.994-8.006c-2.097-0.711-4.362,0.429-5.057,2.531c-0.699,2.093,0.429,4.358,2.527,5.061l23.994,8.006
			c0.418,0.141,0.848,0.203,1.266,0.203c1.674,0,3.233-1.054,3.791-2.733C192.446,299.101,191.318,296.835,189.22,296.132z"/>
            </g>
        </g>
    </symbol>
    <symbol id="Appartement" viewBox="0 0 512 512">
        <path d="M502.467,493.933h-34.661c0.364-2.804,0.528-5.667,0.528-8.533c0-24.086-13.861-44.588-34.133-54.082V144.067
				c0-5.12-3.413-8.533-8.533-8.533h-128v-128c0-5.12-3.413-8.533-8.533-8.533h-230.4C53.613-1,50.2,2.413,50.2,7.533v486.4H7.533
				c-5.12,0-8.533,3.413-8.533,8.533S2.413,511,7.533,511h51.2h25.6h204.8H457.24h45.227c5.12,0,8.533-3.413,8.533-8.533
				S507.587,493.933,502.467,493.933z M417.133,426.269c-2.785-0.389-5.631-0.603-8.533-0.603c-6.442,0-12.761,1.097-18.731,3.148
				c-1.487-1.982-3.884-3.148-6.869-3.148c-5.12,0-8.533,3.413-8.533,8.533v2.615c-3.234,2.33-6.241,4.988-8.97,7.943
				c-0.431,0.456-0.855,0.918-1.27,1.388c-7.071-8.839-16.179-15.233-26.477-18.346c-1.479-1.357-3.518-2.134-5.95-2.134
				c-0.951,0-1.843,0.119-2.666,0.344c-1.927-0.225-3.884-0.344-5.867-0.344c-5.348,0-11.37,0.694-16.249,2.675
				c-0.604,0.204-1.204,0.414-1.798,0.639c-5.897-4.794-12.794-8.245-20.062-10.144c-0.077-0.021-0.156-0.036-0.232-0.057
				c-0.634-0.163-1.27-0.318-1.909-0.457c-0.518-0.114-1.042-0.213-1.565-0.311c-0.227-0.042-0.454-0.087-0.682-0.126
				c-0.549-0.095-1.1-0.179-1.655-0.256c-0.248-0.035-0.496-0.066-0.745-0.097c-0.509-0.063-1.02-0.122-1.534-0.169
				c-0.375-0.035-0.751-0.061-1.127-0.088c-0.402-0.028-0.803-0.061-1.208-0.08c-0.811-0.039-1.622-0.063-2.434-0.063
				c-0.628,0-1.251,0.013-1.871,0.036c-0.406,0.014-0.811,0.039-1.216,0.062c-0.162,0.01-0.326,0.017-0.488,0.028
				c-7.774,0.516-15.412,2.71-22.026,6.596V152.6h42.667h128V426.269z M67.267,16.067H280.6v119.467h-42.667
				c-5.12,0-8.533,3.413-8.533,8.533v265.387c-4.361-4.361-9.388-8.05-14.861-10.937c-0.483-0.258-0.971-0.508-1.461-0.752
				c-0.193-0.095-0.384-0.194-0.578-0.287c-6.09-2.954-12.717-4.892-19.642-5.617c-0.097-0.01-0.195-0.018-0.293-0.028
				c-0.804-0.08-1.612-0.143-2.424-0.19c-0.215-0.013-0.43-0.026-0.646-0.037c-0.917-0.043-1.837-0.072-2.762-0.072
				c-12.7,0-24.466,4.177-34.133,11.197v-2.663c0-5.12-3.413-8.533-8.533-8.533c-5.12,0-8.533,3.413-8.533,8.533v17.067
				c0,1.28,0.213,2.453,0.613,3.493c-4.19,6.905-7.077,14.689-8.293,22.961c-9.824,1.123-18.807,4.658-26.453,9.943v-2.263
				c0-5.12-3.413-8.533-8.533-8.533c-5.12,0-8.533,3.413-8.533,8.533v17.067c0,0.996,0.133,1.925,0.379,2.779
				c-4.231,6.843-7.11,14.586-8.296,22.82h-9.149V16.067z M131.65,459.977c0.169-0.015,0.34-0.025,0.51-0.038
				c0.45-0.035,0.9-0.069,1.354-0.09c0.669-0.03,1.342-0.05,2.02-0.05c5.12,0,8.533-3.413,8.533-8.533
				c0-23.893,18.773-42.667,42.667-42.667c21.333,0,39.253,15.36,41.813,36.693c0.577,2.308,1.947,4.21,3.821,5.474
				c0.118,0.083,0.239,0.161,0.362,0.238c0.132,0.081,0.263,0.163,0.4,0.237c0.315,0.174,0.643,0.333,0.985,0.47
				c0.013,0.005,0.025,0.01,0.038,0.016c0.391,0.156,0.799,0.287,1.22,0.392c0.001,0,0.001,0,0.002,0.001
				c0.508,0.169,1.085,0.234,1.695,0.215c2.805,0.041,5.414-1.493,6.837-3.626c0-0.001,0.001-0.001,0.002-0.002c0,0,0,0,0,0
				l0.853-0.853c6.827-8.533,16.213-13.653,27.307-13.653c5.762,0,11.521,1.614,16.69,4.632
				c-10.179,9.571-15.951,22.048-16.622,35.398c-0.045,0.873-0.068,1.753-0.068,2.637c0,5.934,0.987,11.621,2.94,17.067H93.72
				C97.714,475.562,112.924,461.678,131.65,459.977z M295.154,493.933c-3.26-5.514-5.167-12.033-5.167-17.92
				c0-9.436,3.72-17.937,10.114-24.151c1.222-1.133,2.525-2.179,3.901-3.126c1.333,0.01,2.674-0.268,3.905-0.883
				c18.773-10.24,40.96-0.853,47.787,17.92c0.853,2.56,3.413,5.12,7.68,5.12c0.81,0,1.706-0.258,2.606-0.716
				c2.141-0.351,3.834-1.923,5.074-4.404c3.307-7.027,8.427-12.637,14.659-16.57c1.345-0.375,2.5-1.039,3.419-1.94
				c5.861-2.946,12.505-4.53,19.469-4.53c23.893,0,42.667,18.773,42.667,42.667c0,2.56,0,5.973-0.853,8.533H295.154z"/>
        <path d="M280.6,220.867c-5.12,0-8.533,3.413-8.533,8.533v17.067c0,5.12,3.413,8.533,8.533,8.533s8.533-3.413,8.533-8.533V229.4
				C289.133,224.28,285.72,220.867,280.6,220.867z"/>
        <path d="M280.6,374.467c-5.12,0-8.533,3.413-8.533,8.533v17.067c0,5.12,3.413,8.533,8.533,8.533s8.533-3.413,8.533-8.533V383
				C289.133,377.88,285.72,374.467,280.6,374.467z"/>
        <path d="M280.6,272.067c-5.12,0-8.533,3.413-8.533,8.533v17.067c0,5.12,3.413,8.533,8.533,8.533s8.533-3.413,8.533-8.533V280.6
				C289.133,275.48,285.72,272.067,280.6,272.067z"/>
        <path d="M280.6,323.267c-5.12,0-8.533,3.413-8.533,8.533v17.067c0,5.12,3.413,8.533,8.533,8.533s8.533-3.413,8.533-8.533V331.8
				C289.133,326.68,285.72,323.267,280.6,323.267z"/>
        <path d="M280.6,169.667c-5.12,0-8.533,3.413-8.533,8.533v17.067c0,5.12,3.413,8.533,8.533,8.533s8.533-3.413,8.533-8.533V178.2
				C289.133,173.08,285.72,169.667,280.6,169.667z"/>
        <path d="M331.8,255c5.12,0,8.533-3.413,8.533-8.533V229.4c0-5.12-3.413-8.533-8.533-8.533c-5.12,0-8.533,3.413-8.533,8.533
				v17.067C323.267,251.587,326.68,255,331.8,255z"/>
        <path d="M331.8,203.8c5.12,0,8.533-3.413,8.533-8.533V178.2c0-5.12-3.413-8.533-8.533-8.533c-5.12,0-8.533,3.413-8.533,8.533
				v17.067C323.267,200.387,326.68,203.8,331.8,203.8z"/>
        <path d="M331.8,306.2c5.12,0,8.533-3.413,8.533-8.533V280.6c0-5.12-3.413-8.533-8.533-8.533c-5.12,0-8.533,3.413-8.533,8.533
				v17.067C323.267,302.787,326.68,306.2,331.8,306.2z"/>
        <path d="M331.8,357.4c5.12,0,8.533-3.413,8.533-8.533V331.8c0-5.12-3.413-8.533-8.533-8.533c-5.12,0-8.533,3.413-8.533,8.533
				v17.067C323.267,353.987,326.68,357.4,331.8,357.4z"/>
        <path d="M331.8,408.6c5.12,0,8.533-3.413,8.533-8.533V383c0-5.12-3.413-8.533-8.533-8.533c-5.12,0-8.533,3.413-8.533,8.533
				v17.067C323.267,405.187,326.68,408.6,331.8,408.6z"/>
        <path d="M383,306.2c5.12,0,8.533-3.413,8.533-8.533V280.6c0-5.12-3.413-8.533-8.533-8.533s-8.533,3.413-8.533,8.533v17.067
				C374.467,302.787,377.88,306.2,383,306.2z"/>
        <path d="M383,255c5.12,0,8.533-3.413,8.533-8.533V229.4c0-5.12-3.413-8.533-8.533-8.533s-8.533,3.413-8.533,8.533v17.067
				C374.467,251.587,377.88,255,383,255z"/>
        <path d="M383,408.6c5.12,0,8.533-3.413,8.533-8.533V383c0-5.12-3.413-8.533-8.533-8.533s-8.533,3.413-8.533,8.533v17.067
				C374.467,405.187,377.88,408.6,383,408.6z"/>
        <path d="M383,357.4c5.12,0,8.533-3.413,8.533-8.533V331.8c0-5.12-3.413-8.533-8.533-8.533s-8.533,3.413-8.533,8.533v17.067
				C374.467,353.987,377.88,357.4,383,357.4z"/>
        <path d="M383,203.8c5.12,0,8.533-3.413,8.533-8.533V178.2c0-5.12-3.413-8.533-8.533-8.533s-8.533,3.413-8.533,8.533v17.067
				C374.467,200.387,377.88,203.8,383,203.8z"/>
        <path d="M92.867,323.267c5.12,0,8.533-3.413,8.533-8.533v-17.067c0-5.12-3.413-8.533-8.533-8.533
				c-5.12,0-8.533,3.413-8.533,8.533v17.067C84.333,319.853,87.747,323.267,92.867,323.267z"/>
        <path d="M92.867,374.467c5.12,0,8.533-3.413,8.533-8.533v-17.067c0-5.12-3.413-8.533-8.533-8.533
				c-5.12,0-8.533,3.413-8.533,8.533v17.067C84.333,371.053,87.747,374.467,92.867,374.467z"/>
        <path d="M92.867,425.667c5.12,0,8.533-3.413,8.533-8.533v-17.067c0-5.12-3.413-8.533-8.533-8.533
				c-5.12,0-8.533,3.413-8.533,8.533v17.067C84.333,422.253,87.747,425.667,92.867,425.667z"/>
        <path d="M92.867,67.267c5.12,0,8.533-3.413,8.533-8.533V41.667c0-5.12-3.413-8.533-8.533-8.533c-5.12,0-8.533,3.413-8.533,8.533
				v17.067C84.333,63.853,87.747,67.267,92.867,67.267z"/>
        <path d="M92.867,118.467c5.12,0,8.533-3.413,8.533-8.533V92.867c0-5.12-3.413-8.533-8.533-8.533c-5.12,0-8.533,3.413-8.533,8.533
				v17.067C84.333,115.053,87.747,118.467,92.867,118.467z"/>
        <path d="M92.867,169.667c5.12,0,8.533-3.413,8.533-8.533v-17.067c0-5.12-3.413-8.533-8.533-8.533
				c-5.12,0-8.533,3.413-8.533,8.533v17.067C84.333,166.253,87.747,169.667,92.867,169.667z"/>
        <path d="M92.867,220.867c5.12,0,8.533-3.413,8.533-8.533v-17.067c0-5.12-3.413-8.533-8.533-8.533
				c-5.12,0-8.533,3.413-8.533,8.533v17.067C84.333,217.453,87.747,220.867,92.867,220.867z"/>
        <path d="M92.867,272.067c5.12,0,8.533-3.413,8.533-8.533v-17.067c0-5.12-3.413-8.533-8.533-8.533
				c-5.12,0-8.533,3.413-8.533,8.533v17.067C84.333,268.653,87.747,272.067,92.867,272.067z"/>
        <path d="M144.067,118.467c5.12,0,8.533-3.413,8.533-8.533V92.867c0-5.12-3.413-8.533-8.533-8.533
				c-5.12,0-8.533,3.413-8.533,8.533v17.067C135.533,115.053,138.947,118.467,144.067,118.467z"/>
        <path d="M144.067,67.267c5.12,0,8.533-3.413,8.533-8.533V41.667c0-5.12-3.413-8.533-8.533-8.533c-5.12,0-8.533,3.413-8.533,8.533
				v17.067C135.533,63.853,138.947,67.267,144.067,67.267z"/>
        <path d="M144.067,220.867c5.12,0,8.533-3.413,8.533-8.533v-17.067c0-5.12-3.413-8.533-8.533-8.533
				c-5.12,0-8.533,3.413-8.533,8.533v17.067C135.533,217.453,138.947,220.867,144.067,220.867z"/>
        <path d="M144.067,169.667c5.12,0,8.533-3.413,8.533-8.533v-17.067c0-5.12-3.413-8.533-8.533-8.533
				c-5.12,0-8.533,3.413-8.533,8.533v17.067C135.533,166.253,138.947,169.667,144.067,169.667z"/>
        <path d="M144.067,272.067c5.12,0,8.533-3.413,8.533-8.533v-17.067c0-5.12-3.413-8.533-8.533-8.533
				c-5.12,0-8.533,3.413-8.533,8.533v17.067C135.533,268.653,138.947,272.067,144.067,272.067z"/>
        <path d="M144.067,323.267c5.12,0,8.533-3.413,8.533-8.533v-17.067c0-5.12-3.413-8.533-8.533-8.533
				c-5.12,0-8.533,3.413-8.533,8.533v17.067C135.533,319.853,138.947,323.267,144.067,323.267z"/>
        <path d="M144.067,374.467c5.12,0,8.533-3.413,8.533-8.533v-17.067c0-5.12-3.413-8.533-8.533-8.533
				c-5.12,0-8.533,3.413-8.533,8.533v17.067C135.533,371.053,138.947,374.467,144.067,374.467z"/>
        <path d="M195.267,169.667c5.12,0,8.533-3.413,8.533-8.533v-17.067c0-5.12-3.413-8.533-8.533-8.533s-8.533,3.413-8.533,8.533
				v17.067C186.733,166.253,190.147,169.667,195.267,169.667z"/>
        <path d="M195.267,118.467c5.12,0,8.533-3.413,8.533-8.533V92.867c0-5.12-3.413-8.533-8.533-8.533s-8.533,3.413-8.533,8.533
				v17.067C186.733,115.053,190.147,118.467,195.267,118.467z"/>
        <path d="M195.267,67.267c5.12,0,8.533-3.413,8.533-8.533V41.667c0-5.12-3.413-8.533-8.533-8.533s-8.533,3.413-8.533,8.533v17.067
				C186.733,63.853,190.147,67.267,195.267,67.267z"/>
        <path d="M195.267,374.467c5.12,0,8.533-3.413,8.533-8.533v-17.067c0-5.12-3.413-8.533-8.533-8.533s-8.533,3.413-8.533,8.533
				v17.067C186.733,371.053,190.147,374.467,195.267,374.467z"/>
        <path d="M195.267,323.267c5.12,0,8.533-3.413,8.533-8.533v-17.067c0-5.12-3.413-8.533-8.533-8.533s-8.533,3.413-8.533,8.533
				v17.067C186.733,319.853,190.147,323.267,195.267,323.267z"/>
        <path d="M195.267,272.067c5.12,0,8.533-3.413,8.533-8.533v-17.067c0-5.12-3.413-8.533-8.533-8.533s-8.533,3.413-8.533,8.533
				v17.067C186.733,268.653,190.147,272.067,195.267,272.067z"/>
        <path d="M195.267,220.867c5.12,0,8.533-3.413,8.533-8.533v-17.067c0-5.12-3.413-8.533-8.533-8.533s-8.533,3.413-8.533,8.533
				v17.067C186.733,217.453,190.147,220.867,195.267,220.867z"/>
        <path d="M246.467,118.467c5.12,0,8.533-3.413,8.533-8.533V92.867c0-5.12-3.413-8.533-8.533-8.533s-8.533,3.413-8.533,8.533
				v17.067C237.933,115.053,241.347,118.467,246.467,118.467z"/>
        <path d="M246.467,67.267c5.12,0,8.533-3.413,8.533-8.533V41.667c0-5.12-3.413-8.533-8.533-8.533s-8.533,3.413-8.533,8.533v17.067
				C237.933,63.853,241.347,67.267,246.467,67.267z"/>

    </symbol>
    <symbol id="Maison" viewBox="0 0 512 512">
        <path fill="currentColor"
              d="m76.503 142.269c4.143 0 7.5-3.358 7.5-7.5v-84.5h65v12.5c0 4.142 3.357 7.5 7.5 7.5s7.5-3.358 7.5-7.5v-20c0-4.142-3.357-7.5-7.5-7.5h-80c-4.143 0-7.5 3.358-7.5 7.5v92c0 4.142 3.357 7.5 7.5 7.5z"/>
        <path fill="currentColor"
              d="m431.5 241.269c-4.143 0-7.5 3.358-7.5 7.5v241.231h-149.62v-69.033c10.909-27.222 13.144-55.579 6.415-82.113-6.234-24.585-20.193-46.996-39.306-63.105-3.567-3.007-14.604-11.879-19.494-14.985-3.389-2.151-7.869-1.254-10.168 2.036l-4.992 7.144c-15.811-5.755-61.152-20.395-93.636-12.261-2.648.663-4.727 2.712-5.428 5.35-6.239 23.489-5.368 48.074 2.518 71.099 1.342 3.92 5.606 6.006 9.526 4.665 3.918-1.342 6.007-5.607 4.665-9.525-6.426-18.759-7.545-38.698-3.291-57.949 34.434-5.895 85.089 14.442 85.616 14.657 3.243 1.32 6.971.219 8.975-2.651l3.992-5.713c4.289 3.261 9.374 7.347 12.049 9.602 25.037 21.103 47.013 61.918 34.031 111.901-10.646-24.135-26.141-55.344-68.687-76.178-3.722-1.821-8.213-.283-10.034 3.438-1.822 3.72-.283 8.212 3.437 10.034 38.174 18.693 51.7 46.343 61.854 69.427-15.186-4.891-27.552-6.058-38.807-7.113-19.039-1.785-34.077-3.195-56.886-22.42-9.355-7.885-17.208-17.18-23.342-27.627-2.097-3.572-6.693-4.768-10.265-2.671s-4.768 6.693-2.671 10.265c6.997 11.919 15.95 22.519 26.61 31.503 26.399 22.251 45.223 24.017 65.152 25.885 13.779 1.292 28.001 2.633 47.165 10.779v65.559h-178.378v-241.231c0-4.142-3.357-7.5-7.5-7.5s-7.5 3.358-7.5 7.5v248.731c0 4.142 3.357 7.5 7.5 7.5h358c4.143 0 7.5-3.358 7.5-7.5v-248.731c0-4.142-3.357-7.5-7.5-7.5z"/>
        <path fill="currentColor"
              d="m502.411 214.104-100.443-87.026c-3.131-2.712-7.867-2.375-10.579.757-2.713 3.13-2.374 7.867.757 10.58l97.854 84.783v36.866l-232.589-201.519c-2.818-2.442-7.004-2.442-9.822 0l-232.589 201.519v-36.866l237.5-205.774 119.021 103.122c3.13 2.712 7.867 2.374 10.579-.757 2.713-3.13 2.374-7.867-.757-10.58l-123.932-107.377c-2.818-2.442-7.004-2.442-9.822 0l-245 212.272c-1.645 1.425-2.589 3.493-2.589 5.669v56.712c0 2.936 1.714 5.603 4.384 6.822 2.673 1.22 5.808.769 8.027-1.154l240.089-208.017 240.089 208.017c1.391 1.205 3.142 1.832 4.912 1.832 1.056 0 2.117-.223 3.115-.678 2.67-1.22 4.384-3.886 4.384-6.822v-56.712c0-2.176-.944-4.244-2.589-5.669z"/>
        <path fill="currentColor"
              d="m282.234 413.404c.781 3.491 3.879 5.864 7.312 5.864.542 0 1.093-.059 1.645-.183 7.07-1.582 13.422-2.177 19.564-2.753 16.185-1.517 31.473-2.95 52.953-21.056 29.202-24.615 41.73-64.39 31.918-101.333-.818-3.078-3.49-5.304-6.666-5.552-42.486-3.317-80.094 11.013-105.886 40.346-2.735 3.111-2.432 7.85.68 10.585 3.11 2.735 7.848 2.431 10.584-.68 21.503-24.453 52.597-36.985 88.001-35.616 5.897 29.829-4.887 61.047-28.299 80.78-17.889 15.079-29.714 16.187-44.686 17.591-6.301.59-13.441 1.26-21.439 3.05-4.041.905-6.585 4.915-5.681 8.957z"/>
        <path fill="currentColor"
              d="m293.684 384.728c1.905 0 3.811-.721 5.272-2.167 23.057-22.792 53.495-40.889 53.8-41.069 3.565-2.107 4.749-6.706 2.643-10.272-2.107-3.565-6.701-4.75-10.271-2.644-1.308.772-32.309 19.188-56.717 43.318-2.946 2.912-2.974 7.661-.062 10.606 1.469 1.485 3.401 2.228 5.335 2.228z"/>
    </symbol>
    <symbol id="Garage-Box" viewBox="0 0 512 512">
        <path fill="currentColor"
              d="M483.372,151.6,260.028,16.347a7.9,7.9,0,0,0-8.228,0L28.6,151.6a7.768,7.768,0,0,0-3.6,6.843V488.81c0,4.418,3.123,8.19,7.541,8.19H80.168A8.023,8.023,0,0,0,88,488.81V262H424V488.81a8.023,8.023,0,0,0,7.832,8.19h47.627c4.418,0,7.541-3.772,7.541-8.19V158.445A7.791,7.791,0,0,0,483.372,151.6ZM88,246V214H424v32ZM471,481H440V206.073A8.207,8.207,0,0,0,431.832,198H80.168A8.207,8.207,0,0,0,72,206.073V481H41V162.955L256,32.542,471,162.955Z"/>
        <path fill="currentColor"
              d="M380.269,351.891l-21.143-57.217A27.094,27.094,0,0,0,333.957,277H181.812a27.1,27.1,0,0,0-25.17,17.674l-20.848,56.344-8.214,7.748A36.211,36.211,0,0,0,115,386.331V488.81a8.039,8.039,0,0,0,7.851,8.19h53.385A7.967,7.967,0,0,0,184,488.81V460H328v28.81a7.967,7.967,0,0,0,7.764,8.19h53.385A8.039,8.039,0,0,0,397,488.81V384.173a36.336,36.336,0,0,0-11.1-26.183ZM171.645,300.4a11.2,11.2,0,0,1,10.167-7.4H333.957a11.2,11.2,0,0,1,10.167,7.4L361.638,348H154.13ZM168,481H131V460h37Zm176,0V460h37v21Zm37-37H131V386.331a20.16,20.16,0,0,1,7.079-15.451c.092-.078.145.011.234-.072L145.78,364H369.37l5.081,5.26c.112.121.154.153.274.266A20.085,20.085,0,0,1,381,384.173V444Z"/>
        <path fill="currentColor"
              d="M170.487,383h-4.614a23.5,23.5,0,0,0,0,47h4.614a23.5,23.5,0,0,0,0-47Zm0,31h-4.614a7.5,7.5,0,0,1,0-15h4.614a7.5,7.5,0,0,1,0,15Z"/>
        <path fill="currentColor"
              d="M346.127,383h-4.614a23.5,23.5,0,0,0,0,47h4.614a23.5,23.5,0,0,0,0-47Zm0,31h-4.614a7.5,7.5,0,0,1,0-15h4.614a7.5,7.5,0,0,1,0,15Z"/>
        <path fill="currentColor"
              d="M304,392a8,8,0,0,0-8-8H215a8,8,0,0,0-8,8v30a8,8,0,0,0,8,8h81a8,8,0,0,0,8-8Zm-15,22H223V400h66Z"/>
    </symbol>
    <symbol id="Chambre" viewBox="0 0 512 512">
        <path fill="currentColor"
              d="m465.209 255.16-84.209-65.496v82.336h5c8.284 0 15 6.716 15 15s-6.716 15-15 15h-20-20c-8.284 0-15-6.716-15-15s6.716-15 15-15h5v-82.336l-84.209 65.496c-3.654 2.841-5.791 7.211-5.791 11.84v230c0 8.284 6.716 15 15 15h180c8.284 0 15-6.716 15-15v-230c0-4.629-2.137-8.999-5.791-11.84zm-69.209 196.84h-60c-8.284 0-15-6.716-15-15s6.716-15 15-15h60c8.284 0 15 6.716 15 15s-6.716 15-15 15zm0-60h-60c-8.284 0-15-6.716-15-15s6.716-15 15-15h60c8.284 0 15 6.716 15 15s-6.716 15-15 15z"/>
        <path fill="currentColor"
              d="m161 124.58c17.459 6.192 30 22.865 30 42.42 0 24.813-20.187 45-45 45s-45-20.187-45-45c0-19.555 12.541-36.228 30-42.42v-49.58c0-4.107.345-8.133.983-12.062-51.294 6.873-90.983 50.917-90.983 104.062 0 40.784 23.715 77.666 60 94.887v195.113c0 3.246 1.053 6.403 3 9l30 40c2.833 3.777 7.278 6 12 6s9.167-2.223 12-6l30-40c1.947-2.597 3-5.754 3-9v-25.458l17.48-26.221c3.359-5.038 3.359-11.603 0-16.641l-14.453-21.68 14.453-21.68c3.359-5.038 3.359-11.603 0-16.641l-17.48-26.221v-40.572c36.285-17.221 60-54.103 60-94.887 0-52.267-38.389-95.731-88.45-103.692-1.005 3.732-1.55 7.649-1.55 11.693z"/>
        <path fill="currentColor"
              d="m375.209 185.16 5.791 4.504v-114.664c0-41.355-33.645-75-75-75h-100c-37.249 0-68.229 27.299-74.017 62.938 4.587-.615 9.265-.938 14.017-.938 5.63 0 11.157.451 16.55 1.308 5.161-19.161 22.68-33.308 43.45-33.308h100c24.813 0 45 20.187 45 45v114.664l5.791-4.504c5.416-4.213 13.002-4.213 18.418 0z"/>
        <path fill="currentColor"
              d="m146 152c8.284 0 15-6.716 15-15v-12.42c-4.695-1.665-9.741-2.58-15-2.58s-10.305.915-15 2.58v12.42c0 8.284 6.716 15 15 15z"/>
    </symbol>
    <symbol id="Autre" viewBox="0 0 47.416 47.416">
        <path d="M40.728,0c-5.895,0-11.787,0-17.681,0c-3.787,0-7.574,0-11.361,0c-0.482,0-0.875,0.362-0.963,0.822
		C9.201,2.065,7.679,3.308,6.155,4.552c-0.068,0.056-0.106,0.119-0.146,0.18C5.814,4.916,5.687,5.171,5.687,5.455
		c0,4.934,0,9.869,0,14.803c0,7.467,0,14.934,0,22.397c0,1.254,0,2.507,0,3.761c0,0.545,0.455,1,1,1c5.894,0,11.787,0,17.681,0
		c3.788,0,7.574,0,11.361,0c0.272,0,0.476-0.102,0.634-0.243c0.023-0.019,0.049-0.032,0.07-0.054
		c0.02-0.021,0.031-0.043,0.049-0.064c0.145-0.158,0.247-0.361,0.247-0.639c0-1.15,0-2.305,0-3.455c1.333,0,2.667,0,4,0
		c0.272,0,0.476-0.102,0.634-0.243c0.023-0.019,0.049-0.032,0.07-0.054c0.02-0.021,0.031-0.043,0.049-0.064
		c0.145-0.158,0.247-0.361,0.247-0.639c0-4.936,0-9.869,0-14.803c0-7.466,0-14.932,0-22.397c0-1.254,0-2.507,0-3.761
		C41.728,0.455,41.273,0,40.728,0z M10.686,2.779c0,0.559,0,1.117,0,1.676c-0.684,0-1.368,0-2.052,0
		C9.318,3.896,10.002,3.338,10.686,2.779z M34.728,20.258c0,7.467,0,14.934,0,22.397c0,0.921,0,1.841,0,2.761
		c-5.561,0-11.121,0-16.681,0c-3.453,0-6.907,0-10.361,0c0-4.602,0-9.202,0-13.803c0-7.467,0-14.932,0-22.397c0-0.92,0-1.84,0-2.761
		c5.561,0,11.121,0,16.681,0c3.454,0,6.907,0,10.361,0C34.728,11.056,34.728,15.658,34.728,20.258z M39.728,15.803
		c0,7.465,0,14.931,0,22.397c0,0.921,0,1.841,0,2.761c-1,0-2,0-3,0c0-3.115,0-6.232,0-9.348c0-7.467,0-14.932,0-22.397
		c0-1.254,0-2.507,0-3.761c0-0.545-0.455-1-1-1c-5.895,0-11.787,0-17.681,0c-1.787,0-3.574,0-5.361,0c0-0.818,0-1.637,0-2.455
		c5.561,0,11.121,0,16.683,0c3.452,0,6.905,0,10.359,0C39.728,6.601,39.728,11.203,39.728,15.803z"/>
        <path d="M23.197,23.821c0.659-1.469,0.825-3.753-1.221-4.715c-2.835-1.333-4.899,1.606-4.276,2.561
		c0.223,0.215,0.65-0.059,1.019-0.243c0.41-0.205,0.748-0.299,0.651,0.511c-0.163,1.361-3.364,9.439-0.958,12.04
		c1.367,1.476,3.644,0.765,4.615-0.121c0.324-0.295,0.573-0.707,0.559-1.19c-0.012-0.427-0.634-0.404-0.753-0.39
		c-2.093,0.268-1.366-2.444-1.247-2.963C21.865,28.1,22.852,24.59,23.197,23.821z"/>
        <circle cx="21.012" cy="15.83" r="2.186"/>
    </symbol>
    <symbol id="Terrain" viewBox="0 0 295.786 295.786">
        <path fill="currentColor" d="M286.411,283.831h-13.866c-8.044,0-15.788-2.944-21.797-8.288l-25.275-22.463v-67.927
			c31.411-2.409,56.25-28.683,56.25-60.698c0-18.652-8.489-36.098-22.936-47.63c5.752-7.955,8.873-17.508,8.873-27.37
			c0-25.847-21.028-46.875-46.875-46.875c-25.847,0-46.875,21.028-46.875,46.875c0,9.863,3.122,19.416,8.873,27.37
			c-14.447,11.531-22.936,28.978-22.936,47.63c0,32.016,24.839,58.289,56.25,60.698v59.592l-28.416-25.261
			c-5.302-4.711-11.658-7.931-18.459-9.516v-33.952c0-12.923-10.514-23.438-23.438-23.438h-9.375V86.956h14.536L82.392,2.581H68.55
			L0,86.956h14.536v196.875H5.161v9.375h267.384h13.866h9.375v-9.375H286.411z M127.036,283.831H23.911v-65.625h103.125V283.831z
			 M23.911,208.831v-65.625h9.375v65.625H23.911z M42.661,208.831v-65.625h9.375v65.625H42.661z M61.411,208.831v-65.625h9.375
			v65.625H61.411z M80.161,208.831v-65.625h9.375v65.625H80.161z M98.911,208.831v-65.625h9.375v65.625H98.911z M127.036,208.831
			h-9.375v-65.625h9.375V208.831z M127.036,133.831H23.911V86.956h103.125V133.831z M19.697,77.581l53.32-65.625h4.912l53.32,65.625
			H19.697z M136.411,161.956h9.375c7.753,0,14.063,6.309,14.063,14.063h-23.438V161.956z M136.411,185.393h23.438v23.447
			c-0.066,0.001-0.132-0.009-0.197-0.009h-23.241V185.393z M216.098,283.832H136.41v-65.625h23.241
			c8.044,0,15.787,2.944,21.797,8.288l34.65,30.796V283.832z M242.483,101.355l-21.698,8.677l-21.694-8.681l-3.483,8.705
			l20.489,8.198v57.525c-26.239-2.376-46.874-24.473-46.874-51.323c0-17.227,8.564-33.248,22.903-42.858l4.5-3.019l-3.633-4.022
			c-6.262-6.923-9.708-15.839-9.708-25.102c0-20.677,16.823-37.5,37.5-37.5s37.5,16.823,37.5,37.5
			c0,9.263-3.445,18.178-9.708,25.102l-3.633,4.022l4.5,3.019c14.339,9.609,22.903,25.631,22.903,42.858
			c0,26.85-20.634,48.947-46.875,51.323v-57.525l20.494-8.194L242.483,101.355z M225.473,283.832v-0.001v-18.206l19.041,16.927
			c0.511,0.455,1.055,0.858,1.58,1.28H225.473z"/>
    </symbol>
    <symbol id="Camion" viewBox="0 0 511.878 511.878">
        <g>
            <g>
                <path fill="currentColor" d="M461.898,229.356c-16.832-16.859-39.037-25.404-65.992-25.404h-47.988c-2.211,0-3.999,1.788-3.999,3.999V335.92
			c0,2.211,1.788,4,3.999,4h55.986c27.58,0,27.986,34.522,27.994,35.991c0.008,2.21,1.796,3.999,3.998,3.999h47.989
			c2.21,0,3.999-1.789,3.999-4v-46.333l6.826-6.826c0.75-0.75,1.172-1.766,1.172-2.828
			C495.882,317.627,495.57,263.066,461.898,229.356z M481.058,325.095c-0.75,0.75-1.172,1.765-1.172,2.827v43.99H439.74
			c-1.219-15.746-9.701-39.991-35.837-39.99h-51.987V211.95h43.989c38.031,0,65.04,17.949,80.271,53.347
			c9.966,23.182,11.45,46.731,11.669,53.011L481.058,325.095z"/>
            </g>
        </g>
        <g>
            <g>
                <path fill="currentColor" d="M499.881,323.924c-2.21,0-3.999,1.788-3.999,3.998v15.997c0,2.21,1.789,3.999,3.999,3.999s3.999-1.79,3.999-3.999v-15.997
			C503.88,325.712,502.091,323.924,499.881,323.924z"/>
            </g>
        </g>
        <g>
            <g>
                <path fill="currentColor" d="M507.879,347.918h-15.855c-2.21,0-3.999,1.788-3.999,3.999c0,2.21,1.789,3.999,3.999,3.999h15.855
			c2.211,0,3.999-1.789,3.999-3.999C511.878,349.706,510.09,347.918,507.879,347.918z"/>
            </g>
        </g>
        <g>
            <g>
                <path fill="currentColor" d="M507.879,347.918c-2.21,0-3.999,1.788-3.999,3.999v23.994c0,2.21,1.789,3.999,3.999,3.999
			c2.211,0,3.999-1.789,3.999-3.999v-23.994C511.878,349.706,510.09,347.918,507.879,347.918z"/>
            </g>
        </g>
        <g>
            <g>
                <path fill="currentColor" d="M507.879,371.912h-15.996c-2.21,0-3.999,1.789-3.999,3.999c0,2.21,1.789,3.999,3.999,3.999h15.996
			c2.211,0,3.999-1.789,3.999-3.999C511.878,373.701,510.09,371.912,507.879,371.912z"/>
            </g>
        </g>
        <g>
            <g>
                <path fill="currentColor" d="M383.909,347.918c-22.05,0-39.99,17.94-39.99,39.99s17.94,39.99,39.99,39.99s39.991-17.94,39.991-39.99
			S405.959,347.918,383.909,347.918z M383.909,419.9c-17.643,0-31.992-14.355-31.992-31.992c0-17.637,14.348-31.992,31.992-31.992
			c17.644,0,31.993,14.355,31.993,31.992C415.902,405.545,401.554,419.9,383.909,419.9z"/>
            </g>
        </g>
        <g>
            <g>
                <path fill="currentColor" d="M383.909,363.914c-13.231,0-23.994,10.763-23.994,23.994c0,13.231,10.763,23.994,23.994,23.994
			c13.231,0,23.995-10.763,23.995-23.994C407.904,374.677,397.14,363.914,383.909,363.914z M383.909,403.904
			c-8.818,0-15.996-7.17-15.996-15.996s7.178-15.996,15.996-15.996s15.996,7.17,15.996,15.996S392.727,403.904,383.909,403.904z"/>
            </g>
        </g>
        <g>
            <g>
                <path fill="currentColor" d="M384.151,371.912h-0.086c-2.202,0-3.952,1.789-3.952,3.999c0,2.21,1.828,3.999,4.038,3.999
			c2.202,0,3.999-1.789,3.999-3.999C388.15,373.701,386.353,371.912,384.151,371.912z"/>
            </g>
        </g>
        <g>
            <g>
                <path fill="currentColor" d="M384.151,395.906h-0.086c-2.202,0-3.952,1.789-3.952,3.999c0,2.21,1.828,3.999,4.038,3.999
			c2.202,0,3.999-1.789,3.999-3.999C388.15,397.695,386.353,395.906,384.151,395.906z"/>
            </g>
        </g>
        <g>
            <g>
                <path fill="currentColor" d="M373.763,377.91h-0.086c-2.203,0-3.952,1.789-3.952,4c0,2.21,1.827,3.998,4.038,3.998c2.202,0,3.999-1.788,3.999-3.998
			C377.762,379.699,375.965,377.91,373.763,377.91z"/>
            </g>
        </g>
        <g>
            <g>
                <path fill="currentColor" d="M394.54,389.908h-0.086c-2.203,0-3.952,1.788-3.952,3.998c0,2.211,1.827,4,4.038,4c2.202,0,3.999-1.789,3.999-4
			C398.539,391.696,396.742,389.908,394.54,389.908z"/>
            </g>
        </g>
        <g>
            <g>
                <path fill="currentColor" d="M373.763,389.908h-0.086c-2.203,0-3.952,1.788-3.952,3.998c0,2.211,1.827,4,4.038,4c2.202,0,3.999-1.789,3.999-4
			C377.762,391.696,375.965,389.908,373.763,389.908z"/>
            </g>
        </g>
        <g>
            <g>
                <path fill="currentColor" d="M394.54,377.91h-0.086c-2.203,0-3.952,1.789-3.952,4c0,2.21,1.827,3.998,4.038,3.998c2.202,0,3.999-1.788,3.999-3.998
			C398.539,379.699,396.742,377.91,394.54,377.91z"/>
            </g>
        </g>
        <g>
            <g>
                <path fill="currentColor" d="M384.151,383.909h-0.086c-2.202,0-3.952,1.788-3.952,3.999s1.828,3.999,4.038,3.999c2.202,0,3.999-1.788,3.999-3.999
			S386.353,383.909,384.151,383.909z"/>
            </g>
        </g>
        <g>
            <g>
                <path fill="currentColor" d="M87.979,347.918c-22.05,0-39.991,17.94-39.991,39.99s17.941,39.99,39.991,39.99c22.049,0,39.99-17.94,39.99-39.99
			S110.028,347.918,87.979,347.918z M87.979,419.9c-17.641,0-31.993-14.355-31.993-31.992c0-17.637,14.352-31.992,31.993-31.992
			c17.64,0,31.992,14.355,31.992,31.992C119.971,405.545,105.619,419.9,87.979,419.9z"/>
            </g>
        </g>
        <g>
            <g>
                <path fill="currentColor" d="M87.979,363.914c-13.231,0-23.994,10.763-23.994,23.994c0,13.231,10.763,23.994,23.994,23.994
			c13.231,0,23.994-10.763,23.994-23.994C111.973,374.677,101.21,363.914,87.979,363.914z M87.979,403.904
			c-8.822,0-15.996-7.17-15.996-15.996s7.174-15.996,15.996-15.996c8.822,0,15.996,7.17,15.996,15.996
			S96.801,403.904,87.979,403.904z"/>
            </g>
        </g>
        <g>
            <g>
                <path fill="currentColor" d="M88.217,371.912h-0.078c-2.211,0-3.96,1.789-3.96,3.999c0,2.21,1.831,3.999,4.038,3.999c2.21,0,3.999-1.789,3.999-3.999
			C92.216,373.701,90.427,371.912,88.217,371.912z"/>
            </g>
        </g>
        <g>
            <g>
                <path fill="currentColor" d="M88.217,395.906h-0.078c-2.211,0-3.96,1.789-3.96,3.999c0,2.21,1.831,3.999,4.038,3.999c2.21,0,3.999-1.789,3.999-3.999
			C92.216,397.695,90.427,395.906,88.217,395.906z"/>
            </g>
        </g>
        <g>
            <g>
                <path fill="currentColor" d="M77.829,377.91h-0.078c-2.21,0-3.96,1.789-3.96,4c0,2.21,1.832,3.998,4.038,3.998c2.211,0,3.999-1.788,3.999-3.998
			C81.828,379.699,80.04,377.91,77.829,377.91z"/>
            </g>
        </g>
        <g>
            <g>
                <path fill="currentColor" d="M98.605,389.908h-0.078c-2.21,0-3.96,1.788-3.96,3.998c0,2.211,1.832,4,4.038,4c2.211,0,3.999-1.789,3.999-4
			C102.604,391.696,100.816,389.908,98.605,389.908z"/>
            </g>
        </g>
        <g>
            <g>
                <path fill="currentColor" d="M77.829,389.908h-0.078c-2.21,0-3.96,1.788-3.96,3.998c0,2.211,1.832,4,4.038,4c2.211,0,3.999-1.789,3.999-4
			C81.828,391.696,80.04,389.908,77.829,389.908z"/>
            </g>
        </g>
        <g>
            <g>
                <path fill="currentColor" d="M98.605,377.91h-0.078c-2.21,0-3.96,1.789-3.96,4c0,2.21,1.832,3.998,4.038,3.998c2.211,0,3.999-1.788,3.999-3.998
			C102.604,379.699,100.816,377.91,98.605,377.91z"/>
            </g>
        </g>
        <g>
            <g>
                <path fill="currentColor" d="M88.217,383.909h-0.078c-2.211,0-3.96,1.788-3.96,3.999s1.831,3.999,4.038,3.999c2.21,0,3.999-1.788,3.999-3.999
			S90.427,383.909,88.217,383.909z"/>
            </g>
        </g>
        <g>
            <g>
                <path fill="currentColor" d="M475.887,299.928c-13.731,0-18.752-8.366-24.564-18.058c-6.171-10.28-13.161-21.933-31.423-21.933h-55.986
			c-2.211,0-3.999,1.788-3.999,3.999s1.788,3.999,3.999,3.999H419.9c13.731,0,18.753,8.366,24.564,18.059
			c6.171,10.279,13.161,21.932,31.423,21.932c2.21,0,3.999-1.788,3.999-3.999C479.886,301.717,478.097,299.928,475.887,299.928z"/>
            </g>
        </g>
        <g>
            <g>
                <path fill="currentColor" d="M379.91,291.93h-15.996c-2.211,0-3.999,1.789-3.999,3.999c0,2.211,1.788,3.999,3.999,3.999h15.996
			c2.211,0,3.999-1.788,3.999-3.999C383.909,293.719,382.121,291.93,379.91,291.93z"/>
            </g>
        </g>
        <g>
            <g>
                <path fill="currentColor" d="M350.096,331.937c-1.836-1.187-4.32-0.672-5.53,1.179l-15.997,24.619c-1.202,1.851-0.679,4.335,1.172,5.538
			c0.672,0.438,1.43,0.641,2.18,0.641c1.305,0,2.585-0.641,3.35-1.821l15.996-24.619
			C352.47,335.624,351.947,333.139,350.096,331.937z"/>
            </g>
        </g>
        <g>
            <g>
                <path fill="currentColor" d="M331.921,355.916c-2.211,0-3.999,1.788-3.999,3.999v39.99c0,2.21,1.788,3.999,3.999,3.999c2.21,0,3.999-1.789,3.999-3.999
			v-39.99C335.92,357.704,334.131,355.916,331.921,355.916z"/>
            </g>
        </g>
        <g>
            <g>
                <path fill="currentColor" d="M323.923,379.91H131.968c-2.21,0-3.999,1.789-3.999,3.999c0,2.21,1.789,3.999,3.999,3.999h191.955
			c2.21,0,3.999-1.789,3.999-3.999C327.922,381.699,326.133,379.91,323.923,379.91z"/>
            </g>
        </g>
        <g>
            <g>
                <path fill="currentColor" d="M323.923,355.916H123.97c-2.21,0-3.999,1.788-3.999,3.999c0,2.21,1.789,3.999,3.999,3.999h199.953
			c2.21,0,3.999-1.789,3.999-3.999C327.922,357.704,326.133,355.916,323.923,355.916z"/>
            </g>
        </g>
        <g>
            <g>
                <path fill="currentColor" d="M331.921,83.98c-2.211,0-3.999,1.788-3.999,3.999v247.94c0,2.211,1.788,4,3.999,4c2.21,0,3.999-1.789,3.999-4V87.979
			C335.92,85.768,334.131,83.98,331.921,83.98z"/>
            </g>
        </g>
        <g>
            <g>
                <path fill="currentColor" d="M331.922,83.98H3.999C1.789,83.98,0,85.768,0,87.979c0,2.21,1.789,3.999,3.999,3.999h327.922c2.21,0,3.999-1.789,4-3.999
			C335.921,85.768,334.132,83.98,331.922,83.98z"/>
            </g>
        </g>
        <g>
            <g>
                <path fill="currentColor" d="M3.999,83.98C1.789,83.98,0,85.768,0,87.979v271.936c0,2.21,1.789,3.999,3.999,3.999c2.211,0,3.999-1.789,3.999-3.999
			V87.979C7.998,85.768,6.21,83.98,3.999,83.98z"/>
            </g>
        </g>
        <g>
            <g>
                <path fill="currentColor" d="M51.988,355.916H3.999c-2.21,0-3.999,1.788-3.999,3.999c0,2.21,1.789,3.999,3.999,3.999h47.988
			c2.211,0,3.999-1.789,4-3.999C55.987,357.704,54.198,355.916,51.988,355.916z"/>
            </g>
        </g>
        <g>
            <g>
                <path fill="currentColor" d="M46.816,381.082L30.82,365.086c-1.562-1.562-4.093-1.562-5.655,0c-1.562,1.561-1.562,4.092,0,5.654l15.996,15.996
			c0.782,0.781,1.805,1.172,2.828,1.172s2.047-0.391,2.827-1.172C48.378,385.175,48.378,382.644,46.816,381.082z"/>
            </g>
        </g>
        <g>
            <g>
                <path fill="currentColor" d="M35.992,371.912H11.997c-2.21,0-3.999,1.789-3.999,3.999c0,2.21,1.789,3.999,3.999,3.999h23.994c2.211,0,4-1.789,4-3.999
			C39.991,373.701,38.202,371.912,35.992,371.912z"/>
            </g>
        </g>
        <g>
            <g>
                <path fill="currentColor" d="M171.959,371.912c-2.21,0-3.999,1.789-3.999,3.999v7.998c0,2.21,1.789,3.999,3.999,3.999c2.21,0,3.999-1.789,3.999-3.999
			v-7.998C175.958,373.701,174.169,371.912,171.959,371.912z"/>
            </g>
        </g>
        <g>
            <g>
                <path fill="currentColor" d="M219.948,371.912c-2.21,0-3.999,1.789-3.999,3.999v7.998c0,2.21,1.789,3.999,3.999,3.999c2.21,0,3.999-1.789,3.999-3.999
			v-7.998C223.947,373.701,222.158,371.912,219.948,371.912z"/>
            </g>
        </g>
        <g>
            <g>
                <path fill="currentColor" d="M267.936,371.912c-2.21,0-3.999,1.789-3.999,3.999v7.998c0,2.21,1.789,3.999,3.999,3.999c2.211,0,3.999-1.789,3.999-3.999
			v-7.998C271.935,373.701,270.147,371.912,267.936,371.912z"/>
            </g>
        </g>
        <g>
            <g>
                <path fill="currentColor" d="M443.895,227.946c-2.211,0-3.999,1.788-3.999,3.999v23.994c0,2.211,1.788,3.999,3.999,3.999
			c2.21,0,3.999-1.788,3.999-3.999v-23.994C447.894,229.734,446.105,227.946,443.895,227.946z"/>
            </g>
        </g>
        <g>
            <g>
                <path fill="currentColor" d="M190.783,237.116l-31.992-31.993c-1.562-1.562-4.093-1.562-5.655,0c-1.562,1.562-1.562,4.093,0,5.655l31.992,31.992
			c0.781,0.781,1.805,1.172,2.828,1.172c1.023,0,2.045-0.391,2.827-1.172C192.345,241.209,192.345,238.678,190.783,237.116z"/>
            </g>
        </g>
        <g>
            <g>
                <path fill="currentColor" d="M238.77,125.143c-1.561-1.562-4.092-1.562-5.654,0l-79.981,79.98c-1.562,1.562-1.562,4.093,0,5.655
			c0.782,0.781,1.805,1.172,2.828,1.172c1.023,0,2.046-0.391,2.827-1.172l79.98-79.981
			C240.332,129.236,240.332,126.705,238.77,125.143z"/>
            </g>
        </g>
        <g>
            <g>
                <path fill="currentColor" d="M188.772,149.827c-5.479-1.234-11.134-1.863-16.812-1.863c-41.896,0-75.982,34.086-75.982,75.982
			c0,21.691,9.302,42.397,25.525,56.807c0.761,0.68,1.71,1.008,2.655,1.008c1.101,0,2.198-0.453,2.992-1.346
			c1.464-1.656,1.316-4.178-0.336-5.646c-14.512-12.892-22.838-31.419-22.838-50.824c0-37.487,30.497-67.984,67.984-67.984
			c5.084,0,10.15,0.563,15.055,1.668c2.128,0.477,4.292-0.867,4.78-3.022C192.279,152.455,190.928,150.315,188.772,149.827z"/>
            </g>
        </g>
        <g>
            <g>
                <path fill="currentColor" d="M222.621,167.324c-1.651-1.472-4.17-1.335-5.646,0.312c-1.473,1.648-1.332,4.174,0.312,5.647
			c14.399,12.884,22.655,31.352,22.655,50.664c0,37.486-30.497,67.983-67.984,67.983c-5.104,0-10.192-0.571-15.125-1.687
			c-2.151-0.5-4.3,0.86-4.788,3.015c-0.487,2.155,0.864,4.296,3.016,4.78c5.514,1.25,11.196,1.89,16.898,1.89
			c41.897,0,75.982-34.085,75.98-75.981C247.939,202.362,238.711,181.722,222.621,167.324z"/>
            </g>
        </g>
        <g>
            <g>
                <path fill="currentColor" d="M190.782,237.116c-1.562-1.562-4.093-1.562-5.655,0l-71.982,71.982c-1.562,1.562-1.562,4.093,0,5.655
			c0.781,0.781,1.804,1.172,2.827,1.172c1.024,0,2.047-0.39,2.827-1.172l71.983-71.983
			C192.344,241.209,192.344,238.678,190.782,237.116z"/>
            </g>
        </g>
    </symbol>
    <symbol id="Bateau">
        <g>
            <path fill="currentColor" d="M356.48,228.56H184.96v-22.12h85.12c2.474-0.027,4.458-2.054,4.431-4.528c-0.011-0.984-0.345-1.937-0.951-2.712
			l-88.6-111.28v-37.8c-0.035-0.614-0.199-1.213-0.48-1.76v-0.28c-0.164-0.317-0.365-0.612-0.6-0.88l-0.36-0.4
			c-0.28-0.238-0.589-0.44-0.92-0.6l-0.4-0.24c-0.451-0.154-0.924-0.235-1.4-0.24h-0.32c-0.436,0.017-0.867,0.097-1.28,0.24
			l-0.48,0.24c-0.317,0.163-0.613,0.364-0.88,0.6l-0.4,0.36h-0.2l-120.96,152c-1.524,1.949-1.18,4.764,0.768,6.289
			c0.775,0.606,1.728,0.94,2.712,0.951H176v22.12H4.48c-2.452-0.022-4.458,1.948-4.48,4.4c0,0.027,0,0.054,0,0.08
			c0.044,45.36,36.84,82.102,82.2,82.08h196.56c45.282-0.066,81.974-36.758,82.04-82.04
			C360.823,230.619,358.901,228.626,356.48,228.56z M184.84,102.24l76,95.28h-76V102.24z M68.76,197.52L176,62.88v134.64H68.76z
			 M278.76,306.16H82.2c-38.641-0.052-70.594-30.114-73-68.68h342.56C349.354,276.046,317.401,306.108,278.76,306.16z"/>
        </g>
    </symbol>
    <symbol id="next" viewBox="0 0 20 20">
        <path d="M10 0C4.486 0 0 4.486 0 10C0 15.514 4.486 20 10 20C15.514 20 20 15.514 20 10C20 4.486 15.514 0 10 0ZM15 11H10V15L5 10L10 5V9H15V11Z"
              fill="white"/>
    </symbol>
    <symbol id="dot" viewBox="0 0 16 16">
        <path d="M8 4c-2.2 0-4 1.8-4 4s1.8 4 4 4 4-1.8 4-4-1.8-4-4-4z"></path>
        <path d="M8 1c3.9 0 7 3.1 7 7s-3.1 7-7 7-7-3.1-7-7 3.1-7 7-7zM8 0c-4.4 0-8 3.6-8 8s3.6 8 8 8 8-3.6 8-8-3.6-8-8-8v0z"></path>
    </symbol>
    <symbol id="heart" viewBox="0 -28 512.001 512">
        <path d="m256 455.515625c-7.289062 0-14.316406-2.640625-19.792969-7.4375-20.683593-18.085937-40.625-35.082031-58.21875-50.074219l-.089843-.078125c-51.582032-43.957031-96.125-81.917969-127.117188-119.3125-34.644531-41.804687-50.78125-81.441406-50.78125-124.742187 0-42.070313 14.425781-80.882813 40.617188-109.292969 26.503906-28.746094 62.871093-44.578125 102.414062-44.578125 29.554688 0 56.621094 9.34375 80.445312 27.769531 12.023438 9.300781 22.921876 20.683594 32.523438 33.960938 9.605469-13.277344 20.5-24.660157 32.527344-33.960938 23.824218-18.425781 50.890625-27.769531 80.445312-27.769531 39.539063 0 75.910156 15.832031 102.414063 44.578125 26.191406 28.410156 40.613281 67.222656 40.613281 109.292969 0 43.300781-16.132812 82.9375-50.777344 124.738281-30.992187 37.398437-75.53125 75.355469-127.105468 119.308594-17.625 15.015625-37.597657 32.039062-58.328126 50.167969-5.472656 4.789062-12.503906 7.429687-19.789062 7.429687zm-112.96875-425.523437c-31.066406 0-59.605469 12.398437-80.367188 34.914062-21.070312 22.855469-32.675781 54.449219-32.675781 88.964844 0 36.417968 13.535157 68.988281 43.882813 105.605468 29.332031 35.394532 72.960937 72.574219 123.476562 115.625l.09375.078126c17.660156 15.050781 37.679688 32.113281 58.515625 50.332031 20.960938-18.253907 41.011719-35.34375 58.707031-50.417969 50.511719-43.050781 94.136719-80.222656 123.46875-115.617188 30.34375-36.617187 43.878907-69.1875 43.878907-105.605468 0-34.515625-11.605469-66.109375-32.675781-88.964844-20.757813-22.515625-49.300782-34.914062-80.363282-34.914062-22.757812 0-43.652344 7.234374-62.101562 21.5-16.441406 12.71875-27.894532 28.796874-34.609375 40.046874-3.453125 5.785157-9.53125 9.238282-16.261719 9.238282s-12.808594-3.453125-16.261719-9.238282c-6.710937-11.25-18.164062-27.328124-34.609375-40.046874-18.449218-14.265626-39.34375-21.5-62.097656-21.5zm0 0"/>
    </symbol>
    <symbol id="heartfull" viewBox="0 0 437.775 437.774">
        <path d="M316.722,29.761c66.852,0,121.053,54.202,121.053,121.041c0,110.478-218.893,257.212-218.893,257.212S0,266.569,0,150.801
		C0,67.584,54.202,29.761,121.041,29.761c40.262,0,75.827,19.745,97.841,49.976C240.899,49.506,276.47,29.761,316.722,29.761z"/>
    </symbol>
    <symbol id="sort" viewBox="0 0 512 512">
        <path d="m496.1,138.3l-120.4-120.4c-7.9-7.9-20.6-7.9-28.5-7.10543e-15l-120.3,120.4c-7.9,7.9-7.9,20.6 0,28.5 7.9,7.9 20.6,7.9 28.5,0l85.7-85.7v352.8c0,11.3 9.1,20.4 20.4,20.4 11.3,0 20.4-9.1 20.4-20.4v-352.8l85.7,85.7c7.9,7.9 20.6,7.9 28.5,0 7.9-7.8 7.9-20.6 5.68434e-14-28.5z"/>
        <path d="m287.1,347.2c-7.9-7.9-20.6-7.9-28.5,0l-85.7,85.7v-352.8c0-11.3-9.1-20.4-20.4-20.4-11.3,0-20.4,9.1-20.4,20.4v352.8l-85.7-85.7c-7.9-7.9-20.6-7.9-28.5,0-7.9,7.9-7.9,20.6 0,28.5l120.4,120.4c7.9,7.9 20.6,7.9 28.5,0l120.4-120.4c7.8-7.9 7.8-20.7-0.1-28.5l0,0z"/>
    </symbol>
    <symbol id="place" viewBox="0 0 510 510">
        <path d="M255,0C155.55,0,76.5,79.05,76.5,178.5C76.5,311.1,255,510,255,510s178.5-198.9,178.5-331.5C433.5,79.05,354.45,0,255,0z
			 M255,242.25c-35.7,0-63.75-28.05-63.75-63.75s28.05-63.75,63.75-63.75s63.75,28.05,63.75,63.75S290.7,242.25,255,242.25z"/>
    </symbol>
    <symbol id="loading_heart" viewBox="0 0 472.615 472.615">
        <g>
            <g>
                <path d="M236.308,0c-13.153,0-23.817,10.663-23.817,23.817v82.961c0,13.154,10.663,23.817,23.817,23.817
			c13.154,0,23.817-10.662,23.817-23.817V23.817C260.125,10.664,249.461,0,236.308,0z"/>
            </g>
        </g>
        <g>
            <g>
                <path d="M161.558,127.875l-58.662-58.662c-9.301-9.301-24.381-9.301-33.683,0c-9.301,9.301-9.301,24.381,0,33.682l58.663,58.663
			c9.301,9.302,24.381,9.302,33.682,0C170.859,152.256,170.859,137.176,161.558,127.875z"/>
            </g>
        </g>
        <g>
            <g>
                <path d="M106.779,212.491H23.817C10.663,212.491,0,223.154,0,236.308c0,13.154,10.663,23.817,23.817,23.817h82.962
			c13.154,0,23.817-10.663,23.817-23.817C130.595,223.154,119.932,212.491,106.779,212.491z"/>
            </g>
        </g>
        <g>
            <g>
                <path d="M161.558,311.057c-9.301-9.302-24.381-9.302-33.682,0l-58.663,58.663c-9.301,9.301-9.301,24.381,0,33.682
			c9.302,9.301,24.382,9.301,33.683,0l58.662-58.662C170.859,335.439,170.859,320.359,161.558,311.057z"/>
            </g>
        </g>
        <g>
            <g>
                <path d="M236.308,342.02c-13.153,0-23.817,10.663-23.817,23.817v82.961c0,13.154,10.663,23.817,23.817,23.817
			c13.154,0,23.817-10.663,23.817-23.817v-82.961C260.125,352.684,249.461,342.02,236.308,342.02z"/>
            </g>
        </g>
        <g>
            <g>
                <path d="M403.402,369.721l-58.662-58.663c-9.302-9.302-24.381-9.302-33.683,0c-9.301,9.302-9.301,24.382,0,33.683l58.663,58.662
			c9.301,9.301,24.381,9.301,33.682,0S412.703,379.021,403.402,369.721z"/>
            </g>
        </g>
        <g>
            <g>
                <path d="M448.799,212.491h-82.962c-13.154,0-23.818,10.662-23.818,23.817c0,13.154,10.663,23.817,23.818,23.817h82.962
			c13.154,0,23.817-10.663,23.817-23.817C472.615,223.154,461.952,212.491,448.799,212.491z"/>
            </g>
        </g>
        <g>
            <g>
                <path d="M403.402,69.213c-9.301-9.301-24.381-9.301-33.682,0l-58.663,58.662c-9.301,9.301-9.301,24.381,0,33.683
			c9.302,9.302,24.381,9.302,33.683,0l58.662-58.663C412.703,93.594,412.703,78.514,403.402,69.213z"/>
            </g>
        </g>
    </symbol>
    <symbol id="menu" viewBox="0 0 512 512">
<g>
	<g>
		<path d="M492,236H20c-11.046,0-20,8.954-20,20c0,11.046,8.954,20,20,20h472c11.046,0,20-8.954,20-20S503.046,236,492,236z"/>
	</g>
</g>
<g>
	<g>
		<path d="M492,76H20C8.954,76,0,84.954,0,96s8.954,20,20,20h472c11.046,0,20-8.954,20-20S503.046,76,492,76z"/>
	</g>
</g>
<g>
	<g>
		<path d="M492,396H20c-11.046,0-20,8.954-20,20c0,11.046,8.954,20,20,20h472c11.046,0,20-8.954,20-20
			C512,404.954,503.046,396,492,396z"/>
	</g>
</g>
</symbol>
<symbol id="Animaux" viewBox="0 0 394.47 394.47">
    <path id="path-1_64_" d="m140.882 98.618c23.306 0 42.265-22.123 42.265-49.309s-18.959-49.309-42.265-49.309-42.264 22.123-42.264 49.309 18.958 49.309 42.264 49.309zm0-70.442c7.512 0 14.088 9.878 14.088 21.132s-6.576 21.132-14.088 21.132-14.088-9.878-14.088-21.132 6.576-21.132 14.088-21.132z" transform="translate(4.5 1)"/>
    <path d="m84.529 119.75c0-27.186-18.959-49.309-42.265-49.309s-42.264 22.123-42.264 49.309 18.959 49.309 42.265 49.309 42.264-22.123 42.264-49.309zm-56.353 0c0-11.254 6.576-21.132 14.088-21.132s14.088 9.878 14.088 21.132-6.576 21.132-14.088 21.132-14.088-9.878-14.088-21.132z"/>
    <path id="path-1_63_" d="m253.588 98.618c23.306 0 42.265-22.123 42.265-49.309s-18.959-49.309-42.265-49.309-42.265 22.123-42.265 49.309 18.959 49.309 42.265 49.309zm0-70.442c7.512 0 14.088 9.878 14.088 21.132s-6.576 21.132-14.088 21.132-14.088-9.877-14.088-21.131 6.576-21.133 14.088-21.133z" transform="translate(8.5 1)"/>
    <path d="m352.206 70.441c-23.306 0-42.265 22.123-42.265 49.309s18.959 49.309 42.265 49.309 42.265-22.123 42.265-49.309-18.959-49.309-42.265-49.309zm0 70.441c-7.512 0-14.088-9.878-14.088-21.132s6.576-21.132 14.088-21.132 14.088 9.878 14.088 21.132-6.576 21.132-14.088 21.132z"/>
    <path d="m305.071 193.204c-14.13-47.754-57.481-80.498-107.836-80.498s-93.706 32.744-107.835 80.498c-37.436 17.28-61.223 54.042-61.223 95.605 0 58.265 47.396 105.662 105.662 105.662 23.045 0 45.126-7.484 63.397-21.297 18.271 13.813 40.352 21.297 63.397 21.297 58.265 0 105.662-47.396 105.662-105.662-.001-41.563-23.789-78.325-61.224-95.605zm-44.439 173.09c-20.004 0-39.045-7.732-53.629-21.765-2.724-2.628-6.246-3.935-9.768-3.935s-7.044 1.307-9.768 3.935c-14.584 14.033-33.625 21.765-53.629 21.765-42.732 0-77.485-34.753-77.485-77.485 0-32.249 19.605-60.577 49.928-72.161 4.403-1.678 7.663-5.448 8.709-10.03 8.833-38.701 42.65-65.736 82.246-65.736s73.413 27.035 82.246 65.736c1.046 4.581 4.306 8.351 8.709 10.03 30.323 11.584 49.928 39.912 49.928 72.161-.001 42.732-34.754 77.485-77.487 77.485z"/>
</symbol>
<symbol id="Multimedia" viewBox="0 0 470 470">
	<g>
		<g>
			<path d="M307.5,0h-145C130.794,0,105,25.794,105,57.5v405c0,4.142,3.357,7.5,7.5,7.5h245c4.143,0,7.5-3.358,7.5-7.5v-405
				C365,25.794,339.206,0,307.5,0z M350,455H120V57.5c0-23.435,19.065-42.5,42.5-42.5h145c23.435,0,42.5,19.065,42.5,42.5V455z"/>
			<path d="M257.5,415h-45c-4.143,0-7.5,3.358-7.5,7.5c0,4.142,3.357,7.5,7.5,7.5h45c4.143,0,7.5-3.358,7.5-7.5
				C265,418.358,261.643,415,257.5,415z"/>
			<path d="M295,130c0-33.084-26.916-60-60-60s-60,26.916-60,60s26.916,60,60,60S295,163.084,295,130z M235,175
				c-24.813,0-45-20.187-45-45s20.187-45,45-45s45,20.187,45,45S259.813,175,235,175z"/>
			<path d="M257.5,122.5c-4.143,0-7.5,3.358-7.5,7.5c0,8.271-6.729,15-15,15s-15-6.729-15-15s6.729-15,15-15
				c4.143,0,7.5-3.358,7.5-7.5c0-4.142-3.357-7.5-7.5-7.5c-16.542,0-30,13.458-30,30s13.458,30,30,30s30-13.458,30-30
				C265,125.858,261.643,122.5,257.5,122.5z"/>
			<path d="M235,40c-49.626,0-90,40.374-90,90v110c0,49.626,40.374,90,90,90c49.626,0,90-40.374,90-90v-40
				c0-4.142-3.357-7.5-7.5-7.5s-7.5,3.358-7.5,7.5v40c0,41.355-33.645,75-75,75c-41.355,0-75-33.645-75-75V130
				c0-41.355,33.645-75,75-75s75,33.645,75,75v40c0,4.142,3.357,7.5,7.5,7.5s7.5-3.358,7.5-7.5v-40C325,80.374,284.626,40,235,40z"
				/>
			<path d="M207.5,272.5c0,15.164,12.337,27.5,27.5,27.5c15.163,0,27.5-12.336,27.5-27.5S250.163,245,235,245
				C219.837,245,207.5,257.336,207.5,272.5z M247.5,272.5c0,6.893-5.607,12.5-12.5,12.5s-12.5-5.607-12.5-12.5S228.107,260,235,260
				S247.5,265.607,247.5,272.5z"/>
		</g>
	</g>
</symbol>
<symbol id="Immobilier" viewBox="0 0 144.083 144">
    <path d="M40.51,92.5h14.563c1.657,0,3-1.343,3-3V75c0-1.656-1.343-3-3-3H40.51c-1.657,0-3,1.344-3,3v14.5  C37.51,91.157,38.853,92.5,40.51,92.5z M43.51,78h8.563v8.5H43.51V78z"/>
    <path d="M64.76,92.5h14.563c1.657,0,3-1.343,3-3V75c0-1.656-1.343-3-3-3H64.76c-1.657,0-3,1.344-3,3v14.5  C61.76,91.157,63.103,92.5,64.76,92.5z M67.76,78h8.563v8.5H67.76V78z"/>
    <path d="M89.01,92.5h14.563c1.657,0,3-1.343,3-3V75c0-1.656-1.343-3-3-3H89.01c-1.657,0-3,1.344-3,3v14.5  C86.01,91.157,87.353,92.5,89.01,92.5z M92.01,78h8.563v8.5H92.01V78z"/>
    <path d="M121.513,63.078l-8.689-29.748c-0.374-1.279-1.547-2.159-2.88-2.159H62.917V19.919c0-1.657-1.344-3-3-3h-14.25  c-1.657,0-3,1.343-3,3v11.252h-8.527c-1.333,0-2.506,0.879-2.88,2.159l-8.689,29.748c-0.265,0.907-0.087,1.885,0.479,2.641  c0.566,0.756,1.456,1.201,2.4,1.201h3.368v57.162c0,1.657,1.343,3,3,3h8.692h32.073h12.49h18.5h9.773c1.657,0,3-1.343,3-3V66.919  h2.287c0.944,0,1.834-0.445,2.4-1.201C121.6,64.963,121.778,63.984,121.513,63.078z M114.631,60.919h-9.633V46.5h5.421  L114.631,60.919z M54.063,46.5v14.419h-8.979V46.5H54.063z M60.063,46.5h8.979v14.419h-8.979V46.5z M75.042,46.5h8.979v14.419  h-8.979V46.5z M90.02,46.5h8.979v14.419H90.02V46.5z M48.666,22.919h8.25v8.252h-8.25V22.919z M107.695,37.171l0.973,3.329H35.415  l0.973-3.329H107.695z M33.663,46.5h5.421v14.419h-9.633L33.663,46.5z M69.583,106.244H43.51v-2.75h26.073V106.244z M43.51,121.081  v-8.837h26.073v8.837H43.51z M88.073,121.081v-17.587h12.5v17.587H88.073z M110.346,121.081h-3.773v-20.587c0-1.657-1.343-3-3-3  h-18.5c-1.657,0-3,1.343-3,3v20.587h-6.49v-20.587c0-1.657-1.343-3-3-3H40.51c-1.657,0-3,1.343-3,3v20.587h-2.692V66.919h75.529  V121.081z"/>
</symbol>
<symbol id="Vhicule" viewBox="0 0 512 512">
<g>
	<g>
		<path d="M146.219,333.781L94.72,282.283c-10.091-10.069-23.467-15.616-37.717-15.616H21.333c-5.888,0-10.667,4.779-10.667,10.667
			S15.445,288,21.333,288h35.669c8.405,0,16.661,3.413,22.613,9.365l33.301,33.301H21.333c-5.888,0-10.667,4.779-10.667,10.667
			c0,5.888,4.779,10.667,10.667,10.667h117.333c4.309,0,8.192-2.603,9.856-6.592S149.269,336.832,146.219,333.781z"/>
	</g>
</g>
<g>
	<g>
		<path d="M138.667,384c-5.888,0-10.667,4.779-10.667,10.667v32c0,5.888-4.8,10.667-10.667,10.667h-64
			c-5.867,0-10.667-4.779-10.667-10.667V384c0-5.888-4.779-10.667-10.667-10.667S21.333,378.112,21.333,384v42.667
			c0,17.643,14.357,32,32,32h64c17.643,0,32-14.357,32-32v-32C149.333,388.779,144.555,384,138.667,384z"/>
	</g>
</g>
<g>
	<g>
		<path d="M463.595,203.883c-29.397-15.381-95.381-22.549-207.595-22.549s-178.197,7.168-207.595,22.549
			C14.912,221.376,0,250.603,0,298.667c0,46.208,10.581,86.4,11.029,88.085c1.237,4.672,5.461,7.915,10.304,7.915h93.483
			l40.405,20.203c1.493,0.747,3.136,1.131,4.779,1.131h192c1.643,0,3.285-0.384,4.757-1.131l40.427-20.203h93.483
			c4.843,0,9.067-3.243,10.304-7.915c0.448-1.685,11.029-41.877,11.029-88.085C512,250.603,497.088,221.376,463.595,203.883z
			 M482.24,373.333h-87.552c-1.664,0-3.307,0.384-4.779,1.131l-40.427,20.203H162.517l-40.405-20.203
			c-1.493-0.747-3.136-1.131-4.779-1.131H29.781c-2.965-13.589-8.448-42.944-8.448-74.667c0-40.171,10.709-62.165,36.928-75.883
			c25.557-13.355,92.075-20.117,197.739-20.117s172.181,6.763,197.739,20.117c26.219,13.717,36.928,35.712,36.928,75.883
			C490.667,330.389,485.184,359.744,482.24,373.333z"/>
	</g>
</g>
<g>
	<g>
		<path d="M490.667,330.667h-91.584l33.28-33.301c5.973-5.952,14.208-9.365,22.635-9.365h35.669c5.888,0,10.667-4.779,10.667-10.667
			s-4.779-10.667-10.667-10.667h-35.669c-14.251,0-27.627,5.547-37.717,15.616l-51.499,51.499
			c-3.029,3.051-3.947,7.637-2.304,11.627s5.547,6.592,9.856,6.592h117.333c5.888,0,10.667-4.779,10.667-10.667
			C501.333,335.445,496.555,330.667,490.667,330.667z"/>
	</g>
</g>
<g>
	<g>
		<path d="M382.997,272.811c-1.771-3.755-5.525-6.144-9.664-6.144H138.667c-4.139,0-7.893,2.389-9.664,6.144
			c-1.749,3.733-1.195,8.171,1.472,11.349l53.333,64c2.027,2.432,5.035,3.84,8.192,3.84h128c3.157,0,6.165-1.408,8.192-3.84
			l53.333-64C384.192,280.981,384.747,276.544,382.997,272.811z M314.987,330.667H196.992L161.429,288h189.12L314.987,330.667z"/>
	</g>
</g>
<g>
	<g>
		<path d="M468.459,209.088c-12.139-27.904-52.757-119.872-66.88-131.883c-17.6-14.955-68.011-23.872-134.912-23.872h-21.333
			c-66.901,0-117.312,8.917-134.912,23.851c-14.123,12.011-54.763,103.979-66.88,131.883c-2.325,5.419,0.149,11.691,5.547,14.037
			c5.376,2.347,11.691-0.107,14.037-5.525c24.085-55.445,53.547-117.056,61.12-124.117c8.213-6.976,42.965-18.795,121.088-18.795
			h21.333c78.123,0,112.875,11.819,121.045,18.752c7.616,7.104,37.077,68.693,61.163,124.16c1.749,4.032,5.696,6.421,9.792,6.421
			c1.408,0,2.88-0.277,4.245-0.875C468.309,220.779,470.784,214.485,468.459,209.088z"/>
	</g>
</g>
<g>
	<g>
		<path d="M480,373.333c-5.888,0-10.667,4.779-10.667,10.667v42.667c0,5.888-4.8,10.667-10.667,10.667h-64
			c-5.867,0-10.667-4.779-10.667-10.667v-32c0-5.888-4.779-10.667-10.667-10.667c-5.888,0-10.667,4.779-10.667,10.667v32
			c0,17.643,14.357,32,32,32h64c17.643,0,32-14.357,32-32V384C490.667,378.112,485.888,373.333,480,373.333z"/>
	</g>
</g>
</symbol>
<symbol id="Caravane" viewBox="0 0 500.095 500.095">
<path d="m492.595 363.298h-5.865v-3.15c0-4.142-3.358-7.5-7.5-7.5s-7.5 3.358-7.5 7.5v3.15h-20.367v-49.812c0-4.142-3.358-7.5-7.5-7.5s-7.5 3.358-7.5 7.5v49.812h-25.684v-142.288c0-48.449-39.417-87.866-87.866-87.866h-16.721c-9.955 0-18.054 8.099-18.054 18.054v212.1h-27.363c.001-.051.008-.1.008-.15v-281.922h81.985c51.663 0 93.694 42.031 93.694 93.694v108.566c0 4.142 3.358 7.5 7.5 7.5s7.5-3.358 7.5-7.5v-108.566c0-59.934-48.76-108.694-108.694-108.694h-167.924c-96.354 0-174.744 78.39-174.744 174.744v82.13c0 30.436 24.761 55.198 55.197 55.198h20.771c3.722 31.253 30.372 55.571 62.61 55.571 32.239 0 58.888-24.318 62.61-55.571h179.89v27.464h-14.04c-4.142 0-7.5 3.358-7.5 7.5s3.358 7.5 7.5 7.5h42.718c4.142 0 7.5-3.358 7.5-7.5s-3.358-7.5-7.5-7.5h-13.677v-27.464h75.651v4.744c0 4.142 3.358 7.5 7.5 7.5s7.5-3.358 7.5-7.5v-4.744h5.865c4.142 0 7.5-3.358 7.5-7.5s-3.358-7.5-7.5-7.5zm-189.556-212.1c0-1.684 1.37-3.054 3.054-3.054h16.721c40.178 0 72.866 32.688 72.866 72.866v142.288h-92.64v-212.1zm-288.039 171.902v-50.591h49.298c4.142 0 7.5-3.358 7.5-7.5s-3.358-7.5-7.5-7.5h-49.298v-16.539c0-88.083 71.661-159.744 159.744-159.744h70.94v176.283h-151.386c-4.142 0-7.5 3.358-7.5 7.5s3.358 7.5 7.5 7.5h151.386v90.639c0 .051.007.1.007.15h-44.503c-3.722-31.253-30.371-55.572-62.61-55.572s-58.888 24.318-62.61 55.572h-20.771c-22.165 0-40.197-18.033-40.197-40.198zm123.579 95.769c-26.507 0-48.072-21.564-48.072-48.071s21.565-48.072 48.072-48.072 48.071 21.565 48.071 48.072-21.565 48.071-48.071 48.071z"/>
<path d="m138.579 342.227c-15.754 0-28.571 12.817-28.571 28.571s12.817 28.57 28.571 28.57 28.57-12.816 28.57-28.57-12.816-28.571-28.57-28.571zm0 42.141c-7.483 0-13.571-6.087-13.571-13.57s6.088-13.571 13.571-13.571 13.57 6.088 13.57 13.571-6.088 13.57-13.57 13.57z"/>
<path d="m96.196 219.882h104.192c9.059 0 16.428-7.37 16.428-16.428v-50.46c0-9.058-7.37-16.428-16.428-16.428h-104.192c-9.058 0-16.428 7.37-16.428 16.428v50.46c0 9.059 7.37 16.428 16.428 16.428zm105.62-66.888v50.46c0 .787-.641 1.428-1.428 1.428h-44.596v-53.316h44.596c.788 0 1.428.641 1.428 1.428zm-107.048 0c0-.787.641-1.428 1.428-1.428h44.596v53.316h-44.596c-.787 0-1.428-.641-1.428-1.428z"/>
<path d="m66.677 290.893h-17.466c-4.142 0-7.5 3.358-7.5 7.5s3.358 7.5 7.5 7.5h17.465c4.142 0 7.5-3.358 7.5-7.5.001-4.143-3.357-7.5-7.499-7.5z"/>
<path d="m338.283 168.365c-4.107-1.209-8.426-.432-11.853 2.133-3.427 2.563-5.392 6.486-5.392 10.764v58.309c0 7.41 6.028 13.438 13.439 13.438h29.763c7.41 0 13.439-6.028 13.439-13.438v-18.561c0-24.17-16.201-45.818-39.396-52.645zm24.396 69.644h-26.64v-54.61c15.787 5.574 26.64 20.748 26.64 37.611z"/>
<path d="m369.188 275.986h-14.992c-4.142 0-7.5 3.358-7.5 7.5s3.358 7.5 7.5 7.5h14.992c4.142 0 7.5-3.358 7.5-7.5s-3.357-7.5-7.5-7.5z"/>
</symbol>
<symbol id="arrow_next" viewBox="0 0 792.033 792.033">
		<g>
			<path d="M617.858,370.896L221.513,9.705c-13.006-12.94-34.099-12.94-47.105,0c-13.006,12.939-13.006,33.934,0,46.874
				l372.447,339.438L174.441,735.454c-13.006,12.94-13.006,33.935,0,46.874s34.099,12.939,47.104,0l396.346-361.191
				c6.932-6.898,9.904-16.043,9.441-25.087C627.763,386.972,624.792,377.828,617.858,370.896z"/>
		</g>
	</symbol>
</svg>
