<?xml version="1.0" encoding="utf-8"?>
<!-- Generator: Adobe Illustrator 16.0.0, SVG Export Plug-In . SVG Version: 6.00 Build 0)  -->
<!DOCTYPE svg PUBLIC "-//W3C//DTD SVG 1.1//EN" "http://www.w3.org/Graphics/SVG/1.1/DTD/svg11.dtd">
<svg xmlns="http://www.w3.org/2000/svg" xmlns:xlink="http://www.w3.org/1999/xlink" version="1.1" id="Apartment" x="0px" y="0px" width="512" height="512" viewBox="0 0 144.083 144" enable-background="new 0 0 144.083 144" xml:space="preserve">
<path d="M40.51,92.5h14.563c1.657,0,3-1.343,3-3V75c0-1.656-1.343-3-3-3H40.51c-1.657,0-3,1.344-3,3v14.5  C37.51,91.157,38.853,92.5,40.51,92.5z M43.51,78h8.563v8.5H43.51V78z"/>
<path d="M64.76,92.5h14.563c1.657,0,3-1.343,3-3V75c0-1.656-1.343-3-3-3H64.76c-1.657,0-3,1.344-3,3v14.5  C61.76,91.157,63.103,92.5,64.76,92.5z M67.76,78h8.563v8.5H67.76V78z"/>
<path d="M89.01,92.5h14.563c1.657,0,3-1.343,3-3V75c0-1.656-1.343-3-3-3H89.01c-1.657,0-3,1.344-3,3v14.5  C86.01,91.157,87.353,92.5,89.01,92.5z M92.01,78h8.563v8.5H92.01V78z"/>
<path d="M121.513,63.078l-8.689-29.748c-0.374-1.279-1.547-2.159-2.88-2.159H62.917V19.919c0-1.657-1.344-3-3-3h-14.25  c-1.657,0-3,1.343-3,3v11.252h-8.527c-1.333,0-2.506,0.879-2.88,2.159l-8.689,29.748c-0.265,0.907-0.087,1.885,0.479,2.641  c0.566,0.756,1.456,1.201,2.4,1.201h3.368v57.162c0,1.657,1.343,3,3,3h8.692h32.073h12.49h18.5h9.773c1.657,0,3-1.343,3-3V66.919  h2.287c0.944,0,1.834-0.445,2.4-1.201C121.6,64.963,121.778,63.984,121.513,63.078z M114.631,60.919h-9.633V46.5h5.421  L114.631,60.919z M54.063,46.5v14.419h-8.979V46.5H54.063z M60.063,46.5h8.979v14.419h-8.979V46.5z M75.042,46.5h8.979v14.419  h-8.979V46.5z M90.02,46.5h8.979v14.419H90.02V46.5z M48.666,22.919h8.25v8.252h-8.25V22.919z M107.695,37.171l0.973,3.329H35.415  l0.973-3.329H107.695z M33.663,46.5h5.421v14.419h-9.633L33.663,46.5z M69.583,106.244H43.51v-2.75h26.073V106.244z M43.51,121.081  v-8.837h26.073v8.837H43.51z M88.073,121.081v-17.587h12.5v17.587H88.073z M110.346,121.081h-3.773v-20.587c0-1.657-1.343-3-3-3  h-18.5c-1.657,0-3,1.343-3,3v20.587h-6.49v-20.587c0-1.657-1.343-3-3-3H40.51c-1.657,0-3,1.343-3,3v20.587h-2.692V66.919h75.529  V121.081z"/>
</svg>
