<svg id="Capa_1" enable-background="new 0 0 500.095 500.095" height="512" viewBox="0 0 500.095 500.095" width="512" xmlns="http://www.w3.org/2000/svg">
<g>
<path d="m492.595 363.298h-5.865v-3.15c0-4.142-3.358-7.5-7.5-7.5s-7.5 3.358-7.5 7.5v3.15h-20.367v-49.812c0-4.142-3.358-7.5-7.5-7.5s-7.5 3.358-7.5 7.5v49.812h-25.684v-142.288c0-48.449-39.417-87.866-87.866-87.866h-16.721c-9.955 0-18.054 8.099-18.054 18.054v212.1h-27.363c.001-.051.008-.1.008-.15v-281.922h81.985c51.663 0 93.694 42.031 93.694 93.694v108.566c0 4.142 3.358 7.5 7.5 7.5s7.5-3.358 7.5-7.5v-108.566c0-59.934-48.76-108.694-108.694-108.694h-167.924c-96.354 0-174.744 78.39-174.744 174.744v82.13c0 30.436 24.761 55.198 55.197 55.198h20.771c3.722 31.253 30.372 55.571 62.61 55.571 32.239 0 58.888-24.318 62.61-55.571h179.89v27.464h-14.04c-4.142 0-7.5 3.358-7.5 7.5s3.358 7.5 7.5 7.5h42.718c4.142 0 7.5-3.358 7.5-7.5s-3.358-7.5-7.5-7.5h-13.677v-27.464h75.651v4.744c0 4.142 3.358 7.5 7.5 7.5s7.5-3.358 7.5-7.5v-4.744h5.865c4.142 0 7.5-3.358 7.5-7.5s-3.358-7.5-7.5-7.5zm-189.556-212.1c0-1.684 1.37-3.054 3.054-3.054h16.721c40.178 0 72.866 32.688 72.866 72.866v142.288h-92.64v-212.1zm-288.039 171.902v-50.591h49.298c4.142 0 7.5-3.358 7.5-7.5s-3.358-7.5-7.5-7.5h-49.298v-16.539c0-88.083 71.661-159.744 159.744-159.744h70.94v176.283h-151.386c-4.142 0-7.5 3.358-7.5 7.5s3.358 7.5 7.5 7.5h151.386v90.639c0 .051.007.1.007.15h-44.503c-3.722-31.253-30.371-55.572-62.61-55.572s-58.888 24.318-62.61 55.572h-20.771c-22.165 0-40.197-18.033-40.197-40.198zm123.579 95.769c-26.507 0-48.072-21.564-48.072-48.071s21.565-48.072 48.072-48.072 48.071 21.565 48.071 48.072-21.565 48.071-48.071 48.071z"/>
<path d="m138.579 342.227c-15.754 0-28.571 12.817-28.571 28.571s12.817 28.57 28.571 28.57 28.57-12.816 28.57-28.57-12.816-28.571-28.57-28.571zm0 42.141c-7.483 0-13.571-6.087-13.571-13.57s6.088-13.571 13.571-13.571 13.57 6.088 13.57 13.571-6.088 13.57-13.57 13.57z"/>
<path d="m96.196 219.882h104.192c9.059 0 16.428-7.37 16.428-16.428v-50.46c0-9.058-7.37-16.428-16.428-16.428h-104.192c-9.058 0-16.428 7.37-16.428 16.428v50.46c0 9.059 7.37 16.428 16.428 16.428zm105.62-66.888v50.46c0 .787-.641 1.428-1.428 1.428h-44.596v-53.316h44.596c.788 0 1.428.641 1.428 1.428zm-107.048 0c0-.787.641-1.428 1.428-1.428h44.596v53.316h-44.596c-.787 0-1.428-.641-1.428-1.428z"/>
<path d="m66.677 290.893h-17.466c-4.142 0-7.5 3.358-7.5 7.5s3.358 7.5 7.5 7.5h17.465c4.142 0 7.5-3.358 7.5-7.5.001-4.143-3.357-7.5-7.499-7.5z"/>
<path d="m338.283 168.365c-4.107-1.209-8.426-.432-11.853 2.133-3.427 2.563-5.392 6.486-5.392 10.764v58.309c0 7.41 6.028 13.438 13.439 13.438h29.763c7.41 0 13.439-6.028 13.439-13.438v-18.561c0-24.17-16.201-45.818-39.396-52.645zm24.396 69.644h-26.64v-54.61c15.787 5.574 26.64 20.748 26.64 37.611z"/>
<path d="m369.188 275.986h-14.992c-4.142 0-7.5 3.358-7.5 7.5s3.358 7.5 7.5 7.5h14.992c4.142 0 7.5-3.358 7.5-7.5s-3.357-7.5-7.5-7.5z"/>
</g>
</svg>